<svg width="784" height="401" viewBox="0 0 784 401" fill="none" xmlns="http://www.w3.org/2000/svg">
    <path d="M572.589 22.1748L573.652 21.0145C574.619 19.8542 576.36 19.7575 577.52 20.7244L578.68 21.788L580.421 19.7575L579.26 18.694C578.1 17.7271 578.003 15.9867 578.97 14.8264L580.034 13.6662L578.003 11.9258L576.94 13.086C575.973 14.2463 574.233 14.343 573.072 13.3761L571.912 12.3125L570.172 14.343L571.332 15.4066C572.492 16.3734 572.589 18.1138 571.622 19.2741L570.558 20.4344L572.589 22.1748Z"
          fill="#2B1C1C"/>
    <path d="M512.932 72.7427L513.512 72.0659C514.092 71.3891 515.059 71.3891 515.736 71.8725L516.413 72.4527L517.476 71.2924L516.8 70.7123C516.123 70.1321 516.123 69.1653 516.606 68.4884L517.186 67.8116L516.026 66.748L515.446 67.4249C514.866 68.1017 513.899 68.1017 513.222 67.6182L512.545 67.0381L511.482 68.1984L512.159 68.7785C512.835 69.3586 512.835 70.3255 512.352 71.0023L511.772 71.6792L512.932 72.7427Z"
          fill="#2B1C1C"/>
    <path d="M607.493 112.288L607.977 111.805C608.364 111.322 609.137 111.225 609.62 111.708L610.104 112.192L610.877 111.322L610.394 110.838C609.911 110.451 609.814 109.678 610.297 109.194L610.781 108.711L609.911 107.938L609.427 108.421C609.04 108.904 608.267 109.001 607.783 108.518L607.3 108.034L606.526 108.904L607.01 109.388C607.493 109.775 607.59 110.548 607.107 111.032L606.623 111.515L607.493 112.288Z"
          fill="#2B1C1C"/>
    <path d="M560.793 81.4449L561.373 80.7681C561.953 80.0912 562.92 80.0912 563.597 80.5747L564.274 81.1548L565.337 79.9945L564.66 79.4144C563.984 78.8343 563.984 77.8674 564.467 77.1906L565.047 76.5138L563.887 75.4502L563.307 76.127C562.727 76.8038 561.76 76.8038 561.083 76.3204L560.406 75.7403L559.343 76.9005L560.019 77.4806C560.696 78.0608 560.696 79.0277 560.213 79.7045L559.633 80.3813L560.793 81.4449Z"
          fill="#2B1C1C"/>
    <path d="M548.223 139.748L548.513 139.361C548.803 139.071 549.287 138.974 549.577 139.264L549.964 139.554L550.447 138.974L550.06 138.684C549.77 138.394 549.674 137.911 549.964 137.621L550.254 137.234L549.674 136.75L549.384 137.137C549.094 137.427 548.61 137.524 548.32 137.234L547.933 136.944L547.45 137.524L547.837 137.814C548.127 138.104 548.223 138.588 547.933 138.878L547.643 139.264L548.223 139.748Z"
          fill="#2B1C1C"/>
    <path d="M521.441 192.733L521.634 192.54C521.731 192.346 522.021 192.346 522.214 192.54L522.408 192.733L522.698 192.443L522.504 192.25C522.311 192.153 522.311 191.863 522.504 191.669L522.698 191.476L522.408 191.186L522.214 191.379C522.117 191.573 521.827 191.573 521.634 191.379L521.441 191.186L521.151 191.476L521.344 191.669C521.537 191.766 521.537 192.056 521.344 192.25L521.151 192.443L521.441 192.733Z"
          fill="#2B1C1C"/>
    <path d="M574.909 124.858L575.199 124.471C575.489 124.181 575.973 124.084 576.263 124.374L576.65 124.664L577.133 124.084L576.746 123.794C576.456 123.504 576.36 123.021 576.65 122.731L576.94 122.344L576.36 121.86L576.07 122.247C575.779 122.537 575.296 122.634 575.006 122.344L574.619 122.054L574.136 122.634L574.523 122.924C574.813 123.214 574.909 123.697 574.619 123.987L574.329 124.374L574.909 124.858Z"
          fill="#2B1C1C"/>
    <path d="M593.473 160.633L593.763 160.246C594.054 159.956 594.537 159.859 594.827 160.149L595.214 160.439L595.697 159.859L595.311 159.569C595.02 159.279 594.924 158.796 595.214 158.505L595.504 158.119L594.924 157.635L594.634 158.022C594.344 158.312 593.86 158.409 593.57 158.119L593.183 157.829L592.7 158.409L593.087 158.699C593.377 158.989 593.473 159.472 593.183 159.762L592.893 160.149L593.473 160.633Z"
          fill="#2B1C1C"/>
    <path d="M575.876 168.271L576.166 167.884C576.456 167.594 576.94 167.497 577.23 167.787L577.617 168.077L578.1 167.497L577.713 167.207C577.423 166.917 577.327 166.434 577.617 166.144L577.907 165.757L577.327 165.273L577.037 165.66C576.746 165.95 576.263 166.047 575.973 165.757L575.586 165.467L575.103 166.047L575.49 166.337C575.78 166.627 575.876 167.111 575.586 167.401L575.296 167.787L575.876 168.271Z"
          fill="#2B1C1C"/>
    <path d="M555.185 47.0236L555.378 46.8302C555.475 46.6368 555.765 46.6368 555.958 46.8302L556.152 47.0236L556.442 46.7335L556.248 46.5401C556.055 46.4434 556.055 46.1534 556.248 45.96L556.442 45.7666L556.152 45.4766L555.958 45.6699C555.862 45.8633 555.572 45.8633 555.378 45.6699L555.185 45.4766L554.895 45.7666L555.088 45.96C555.282 46.0567 555.282 46.3468 555.088 46.5401L554.895 46.7335L555.185 47.0236Z"
          fill="#2B1C1C"/>
    <path d="M508.001 26.6223L508.291 26.2356C508.581 25.9455 509.065 25.8488 509.355 26.1389L509.741 26.429L510.225 25.8488L509.838 25.5588C509.548 25.2687 509.451 24.7853 509.741 24.4952L510.031 24.1084L509.451 23.625L509.161 24.0118C508.871 24.3018 508.388 24.3985 508.098 24.1084L507.711 23.8184L507.227 24.3985L507.614 24.6886C507.904 24.9786 508.001 25.4621 507.711 25.7521L507.421 26.1389L508.001 26.6223Z"
          fill="#2B1C1C"/>
    <path d="M526.468 49.2473L526.758 48.8606C527.049 48.5705 527.532 48.4738 527.822 48.7639L528.209 49.054L528.692 48.4738L528.306 48.1838C528.015 47.8937 527.919 47.4103 528.209 47.1202L528.499 46.7334L527.919 46.25L527.629 46.6368C527.339 46.9268 526.855 47.0235 526.565 46.7334L526.178 46.4434L525.695 47.0235L526.082 47.3136C526.372 47.6036 526.468 48.0871 526.178 48.3771L525.888 48.7639L526.468 49.2473Z"
          fill="#2B1C1C"/>
    <path d="M537.684 15.1164L537.878 14.923C537.974 14.7296 538.265 14.7296 538.458 14.923L538.651 15.1164L538.941 14.8263L538.748 14.6329C538.555 14.5362 538.555 14.2462 538.748 14.0528L538.941 13.8594L538.651 13.5693L538.458 13.7627C538.361 13.9561 538.071 13.9561 537.878 13.7627L537.684 13.5693L537.394 13.8594L537.588 14.0528C537.781 14.1495 537.781 14.4395 537.588 14.6329L537.394 14.8263L537.684 15.1164Z"
          fill="#2B1C1C"/>
    <path d="M593.86 67.9083L594.054 67.715C594.15 67.5216 594.44 67.5216 594.634 67.715L594.827 67.9083L595.117 67.6183L594.924 67.4249C594.731 67.3282 594.731 67.0381 594.924 66.8448L595.117 66.6514L594.827 66.3613L594.634 66.5547C594.537 66.7481 594.247 66.7481 594.054 66.5547L593.86 66.3613L593.57 66.6514L593.764 66.8448C593.957 66.9415 593.957 67.2315 593.764 67.4249L593.57 67.6183L593.86 67.9083Z"
          fill="#2B1C1C"/>
    <path d="M622.093 145.259L622.287 145.066C622.383 144.872 622.673 144.872 622.867 145.066L623.06 145.259L623.35 144.969L623.157 144.775C622.964 144.679 622.964 144.389 623.157 144.195L623.35 144.002L623.06 143.712L622.867 143.905C622.77 144.099 622.48 144.099 622.287 143.905L622.093 143.712L621.803 144.002L621.997 144.195C622.19 144.292 622.19 144.582 621.997 144.775L621.803 144.969L622.093 145.259Z"
          fill="#2B1C1C"/>
    <path d="M604.206 194.57L604.399 194.377C604.496 194.184 604.786 194.184 604.979 194.377L605.173 194.57L605.463 194.28L605.269 194.087C605.076 193.99 605.076 193.7 605.269 193.507L605.463 193.313L605.173 193.023L604.979 193.217C604.883 193.41 604.593 193.41 604.399 193.217L604.206 193.023L603.916 193.313L604.109 193.507C604.303 193.604 604.303 193.894 604.109 194.087L603.916 194.28L604.206 194.57Z"
          fill="#2B1C1C"/>
    <path d="M551.124 223.867L551.317 223.673C551.414 223.48 551.704 223.48 551.897 223.673L552.091 223.867L552.381 223.577L552.091 223.383C551.897 223.287 551.897 222.997 552.091 222.803L552.284 222.61L551.994 222.32L551.801 222.513C551.704 222.707 551.414 222.707 551.221 222.513L551.027 222.32L550.737 222.61L550.931 222.803C551.124 222.9 551.124 223.19 550.931 223.383L550.737 223.577L551.124 223.867Z"
          fill="#2B1C1C"/>
    <path d="M531.109 104.553L531.399 104.167C531.69 103.877 532.173 103.78 532.463 104.07L532.85 104.36L533.333 103.78L532.947 103.49C532.656 103.2 532.56 102.716 532.85 102.426L533.14 102.04L532.753 101.556L532.463 101.943C532.173 102.233 531.69 102.33 531.399 102.04L531.013 101.75L530.529 102.33L530.916 102.62C531.206 102.91 531.303 103.393 531.013 103.683L530.723 104.07L531.109 104.553Z"
          fill="#2B1C1C"/>
    <path d="M528.015 160.343L528.306 159.956C528.596 159.666 529.079 159.569 529.369 159.859L529.756 160.149L530.239 159.569L529.853 159.279C529.562 158.989 529.466 158.505 529.756 158.215L530.046 157.829L529.466 157.345L529.176 157.732C528.886 158.022 528.402 158.119 528.112 157.829L527.725 157.539L527.242 158.119L527.629 158.409C527.919 158.699 528.015 159.182 527.725 159.472L527.435 159.859L528.015 160.343Z"
          fill="#2B1C1C"/>
    <path d="M564.66 220.193H553.058V399.066H564.66V220.193Z" stroke="#382929" stroke-width="2" stroke-miterlimit="10"/>
    <path d="M218.516 399.002L230.118 399.002L230.118 220.128L218.516 220.128L218.516 399.002Z" stroke="#382929"
          stroke-width="2" stroke-miterlimit="10"/>
    <path d="M427.846 156.668H355.33V205.013H427.846V156.668Z" fill="#FFF0CE" stroke="#382929" stroke-width="2"
          stroke-miterlimit="10"/>
    <path d="M451.052 196.987H332.125V204.722H451.052V196.987Z" fill="#FFF0CE" stroke="#382929" stroke-width="2"
          stroke-miterlimit="10"/>
    <path d="M783.176 397.132H0V401H783.176V397.132Z" fill="#2B1C1C"/>
    <path d="M492.144 156.668H291.032C282.524 156.668 275.562 149.707 275.562 141.198V17.4369C275.562 8.92836 282.524 1.9668 291.032 1.9668H492.144C500.653 1.9668 507.614 8.92836 507.614 17.4369V141.198C507.614 149.707 500.653 156.668 492.144 156.668Z"
          fill="#FFF0CE" stroke="#382929" stroke-width="2" stroke-miterlimit="10"/>
    <path d="M507.614 125.728H275.562V17.4369C275.562 8.92836 282.524 1.9668 291.032 1.9668H492.144C500.653 1.9668 507.614 8.92836 507.614 17.4369V125.728Z"
          fill="#2B1C1C"/>
    <path d="M48.1508 397.713L102.103 274.822L92.6275 272.404C90.597 270.664 87.9864 271.824 86.9229 274.822L44.7667 394.715C43.6065 398.003 46.7972 400.807 48.1508 397.713Z"
          stroke="#382929" stroke-width="2" stroke-miterlimit="10"/>
    <path d="M177.133 397.713L123.181 274.822L132.656 272.404C134.687 270.664 137.298 271.824 138.361 274.822L180.517 394.715C181.678 398.003 178.487 400.807 177.133 397.713Z"
          stroke="#382929" stroke-width="2" stroke-miterlimit="10"/>
    <path d="M391.588 147.87C395.433 147.87 398.55 144.753 398.55 140.908C398.55 137.064 395.433 133.947 391.588 133.947C387.743 133.947 384.626 137.064 384.626 140.908C384.626 144.753 387.743 147.87 391.588 147.87Z"
          fill="#E5CCA3"/>
    <path d="M608.75 216.325H174.329V224.06H608.75V216.325Z" fill="#2B1C1C"/>
    <path d="M154.702 275.305H92.6275C66.0382 275.305 44.4767 253.743 44.4767 227.154V220.579C44.4767 204.916 42.2529 189.252 37.8052 174.266L34.8079 164.113"
          stroke="#2B1C1C" stroke-width="12" stroke-miterlimit="10"/>
    <path d="M95.1414 290.679L135.654 303.248" stroke="#382929" stroke-miterlimit="10"/>
    <path d="M131.4 294.643L87.8898 308.083" stroke="#382929" stroke-miterlimit="10"/>
    <path d="M87.6964 308.179L146.386 326.26" stroke="#382929" stroke-miterlimit="10"/>
    <path d="M140.198 313.787L77.1573 333.318" stroke="#382929" stroke-miterlimit="10"/>
    <path d="M408.122 85.989C411.806 85.989 414.793 83.0021 414.793 79.3175C414.793 75.6329 411.806 72.646 408.122 72.646C404.437 72.646 401.45 75.6329 401.45 79.3175C401.45 83.0021 404.437 85.989 408.122 85.989Z"
          fill="white"/>
    <path d="M414.793 89.2764H401.547V102.523H414.793V89.2764Z" fill="white"/>
    <path d="M408.122 62.7838L401.547 56.1123V69.3586H414.793V56.1123L408.122 62.7838Z" fill="white"/>
    <path d="M395.552 95.8512C395.552 98.075 393.812 99.8154 391.588 99.8154C389.364 99.8154 387.624 98.075 387.624 95.8512C387.624 93.6274 389.364 91.887 391.588 91.887C393.812 91.887 395.552 93.724 395.552 95.8512ZM398.26 95.8512C398.26 92.177 395.262 89.1797 391.588 89.1797C387.914 89.1797 384.917 92.177 384.917 95.8512C384.917 99.5253 387.914 102.523 391.588 102.523C395.262 102.523 398.26 99.5253 398.26 95.8512Z"
          fill="white"/>
    <path d="M384.917 85.989V72.646L398.26 85.989H384.917Z" fill="white"/>
    <path d="M368.383 72.646V85.8923C371.864 85.8923 375.248 84.5387 377.762 82.0248C380.276 79.5109 381.629 76.1268 381.629 72.646H368.383Z"
          fill="white"/>
    <path d="M368.383 68.6817V56.7891L374.378 62.7837L368.383 68.6817Z" fill="white"/>
    <path d="M381.629 68.6817L375.635 62.7837L381.629 56.7891V68.6817Z" fill="white"/>
    <path d="M395.262 62.107C396.918 62.107 398.26 60.765 398.26 59.1096C398.26 57.4543 396.918 56.1123 395.262 56.1123C393.607 56.1123 392.265 57.4543 392.265 59.1096C392.265 60.765 393.607 62.107 395.262 62.107Z"
          fill="white"/>
    <path d="M387.914 62.107C389.569 62.107 390.911 60.765 390.911 59.1096C390.911 57.4543 389.569 56.1123 387.914 56.1123C386.259 56.1123 384.917 57.4543 384.917 59.1096C384.917 60.765 386.259 62.107 387.914 62.107Z"
          fill="white"/>
    <path d="M395.262 69.3584C396.918 69.3584 398.26 68.0165 398.26 66.3611C398.26 64.7057 396.918 63.3638 395.262 63.3638C393.607 63.3638 392.265 64.7057 392.265 66.3611C392.265 68.0165 393.607 69.3584 395.262 69.3584Z"
          fill="white"/>
    <path d="M387.914 69.3584C389.569 69.3584 390.911 68.0165 390.911 66.3611C390.911 64.7057 389.569 63.3638 387.914 63.3638C386.259 63.3638 384.917 64.7057 384.917 66.3611C384.917 68.0165 386.259 69.3584 387.914 69.3584Z"
          fill="white"/>
    <path d="M378.922 89.2764C378.632 91.1134 376.988 92.5638 374.958 92.5638C373.024 92.5638 371.38 91.1134 370.994 89.2764H368.383C368.673 92.6605 371.574 95.271 374.958 95.271C378.438 95.271 381.242 92.6605 381.533 89.2764H378.922Z"
          fill="white"/>
    <path d="M375.054 96.5278C371.574 96.5278 368.77 99.1384 368.48 102.523H371.187C371.477 100.685 373.121 99.2351 375.151 99.2351C377.085 99.2351 378.729 100.685 379.115 102.523H381.823C381.242 99.1384 378.439 96.5278 375.054 96.5278Z"
          fill="white"/>
    <path d="M628.475 204.723H154.701V216.325H628.475V204.723Z" fill="#2B1C1C"/>
    <path fill-rule="evenodd" clip-rule="evenodd"
          d="M668.89 241.561C670.631 241.367 672.468 241.464 674.112 242.141C677.592 243.591 678.559 247.652 678.463 250.939C678.366 254.517 677.689 258.384 680.396 261.285C681.653 262.639 683.2 263.606 684.361 264.959C685.618 266.41 686.681 268.053 687.455 269.794C688.808 272.984 689.485 276.852 688.228 280.236C687.068 283.233 684.264 285.941 684.941 289.325C685.618 292.902 689.195 295.609 691.419 298.22C693.933 301.217 696.253 304.988 696.64 308.952C697.027 312.723 695.383 316.494 692.869 319.298C687.841 325.003 680.3 327.71 672.758 327.71C669.567 327.71 665.893 327.517 663.089 325.776C662.219 325.196 661.736 324.616 661.252 323.842C660.769 323.069 660.189 322.586 659.512 322.102C657.965 320.942 656.901 319.395 656.128 317.654C653.324 310.79 655.547 302.378 659.415 296.286C660.285 294.836 661.059 293.482 660.672 291.742C660.189 290.002 659.028 288.358 658.061 286.811C657.094 285.264 655.934 283.813 655.161 282.17C654.387 280.429 654.097 278.689 654.291 276.755C654.581 273.178 656.128 269.987 658.255 267.086C660.382 264.379 662.799 261.769 662.799 258.191C662.799 254.42 660.285 251.036 661.349 247.169C661.832 245.525 662.702 243.881 664.153 243.011C665.41 242.044 667.247 241.754 668.89 241.561Z"
          fill="#2B1C1C"/>
    <path fill-rule="evenodd" clip-rule="evenodd"
          d="M667.827 247.652C667.827 247.168 668.504 246.878 668.987 246.975C669.567 247.168 669.567 247.749 669.567 248.232C669.471 249.876 669.761 251.423 670.147 252.97C670.921 256.16 672.468 259.158 673.628 262.349C674.788 265.443 675.369 268.633 674.692 271.921C674.015 275.015 673.048 278.012 672.371 281.106C671.791 283.813 671.211 286.714 672.081 289.421C672.951 292.032 674.788 294.159 676.239 296.576C679.043 301.507 680.3 306.922 680.493 312.53C680.59 315.14 680.493 317.751 679.913 320.362C679.526 321.812 679.139 323.842 677.882 324.809C677.302 325.293 676.335 325.486 675.852 324.713C675.369 324.036 675.755 323.069 675.949 322.392C676.626 319.395 676.722 316.301 676.529 313.303C676.335 310.306 676.045 307.405 675.079 304.601C674.208 301.991 672.951 299.67 671.404 297.35C669.857 295.029 668.214 292.709 667.537 289.905C666.86 287.101 667.44 284.2 668.117 281.493C668.89 278.592 669.857 275.788 670.921 272.888C671.888 270.084 672.275 267.473 671.694 264.572C670.341 258.964 667.44 253.55 667.827 247.652Z"
          fill="#FFF0CE"/>
    <path fill-rule="evenodd" clip-rule="evenodd"
          d="M714.914 248.425C717.041 249.102 719.168 250.166 720.715 251.809C724.003 255.29 722.939 260.608 721.199 264.572C719.265 268.73 716.364 272.984 718.008 277.722C718.782 279.946 720.039 281.88 720.812 284.103C721.586 286.521 721.876 288.938 721.876 291.452C721.779 295.996 720.619 300.831 717.331 304.215C714.431 307.212 709.693 308.856 708.629 313.207C707.469 317.751 710.273 322.779 711.53 327.033C712.884 331.868 713.657 337.572 712.014 342.407C710.467 347.048 706.502 350.722 702.055 352.752C693.159 356.813 682.91 356.233 674.015 352.269C670.244 350.625 665.99 348.498 663.669 345.017C662.896 343.954 662.702 342.987 662.606 341.73C662.509 340.569 662.026 339.699 661.445 338.732C660.285 336.509 659.802 334.091 659.899 331.674C660.285 322.199 667.344 313.303 675.079 308.179C676.916 306.922 678.559 305.665 678.946 303.441C679.333 301.121 678.849 298.607 678.463 296.286C678.076 293.966 677.496 291.645 677.496 289.325C677.496 286.907 678.173 284.587 679.333 282.46C681.557 278.399 685.037 275.401 689.098 273.081C692.966 270.954 697.22 269.117 699.154 264.862C701.184 260.415 700.024 255.097 703.312 251.036C704.665 249.392 706.599 247.942 708.823 247.555C710.563 247.265 712.884 247.845 714.914 248.425Z"
          fill="#2B1C1C"/>
    <path fill-rule="evenodd" clip-rule="evenodd"
          d="M710.467 255.871C710.757 255.29 711.627 255.194 712.11 255.677C712.787 256.257 712.4 256.934 712.11 257.514C711.24 259.351 710.66 261.382 710.273 263.412C709.5 267.667 709.693 272.018 709.403 276.272C709.113 280.526 708.146 284.684 705.535 288.165C703.118 291.452 700.411 294.546 697.994 297.833C695.867 300.734 693.643 303.828 693.256 307.599C692.869 311.176 693.933 314.657 694.32 318.235C695.093 325.583 693.643 332.641 690.936 339.409C689.679 342.503 688.228 345.597 686.198 348.305C685.038 349.852 683.394 351.979 681.46 352.559C680.493 352.849 679.333 352.462 679.043 351.399C678.849 350.432 679.816 349.368 680.397 348.691C682.717 345.501 684.457 341.923 685.908 338.249C687.261 334.672 688.422 330.997 688.808 327.13C689.195 323.552 688.905 320.072 688.228 316.591C687.648 313.013 686.971 309.339 687.648 305.762C688.325 302.088 690.452 298.994 692.773 296.093C695.19 292.999 697.8 290.195 700.508 287.391C703.118 284.684 704.955 281.783 705.729 278.012C707.566 270.664 706.889 262.735 710.467 255.871Z"
          fill="#FFF0CE"/>
    <path fill-rule="evenodd" clip-rule="evenodd"
          d="M649.553 280.333C653.13 280.333 656.321 282.266 658.448 284.877C660.962 288.068 661.542 291.838 662.509 295.609C662.992 297.446 663.863 299.38 665.41 300.637C666.86 301.797 668.6 301.991 670.244 302.571C673.628 303.731 676.335 306.438 677.399 309.726C678.753 313.787 677.302 317.848 677.592 321.909C677.786 325.679 681.557 328 684.554 329.837C687.455 331.577 690.162 333.318 691.032 336.702C691.999 340.376 692.289 344.437 691.032 348.111C688.905 354.202 682.524 356.813 676.335 357.2C670.728 357.587 663.766 357.006 659.608 352.946C657.094 350.528 656.224 347.144 656.321 343.76C656.418 341.633 656.804 339.603 657.385 337.572C657.771 336.122 658.255 334.671 658.448 333.221C658.835 329.257 655.161 328.483 652.067 327.42C648.102 326.066 645.395 323.456 643.461 319.878C641.721 316.494 640.948 312.723 642.011 309.049C642.591 307.115 643.558 305.471 644.912 304.021C645.492 303.344 646.362 302.861 646.846 302.184C647.329 301.507 647.232 300.734 647.039 299.96C646.265 296.576 643.751 293.676 642.881 290.291C642.108 287.197 642.591 283.427 645.395 281.396C646.555 280.719 648.006 280.333 649.553 280.333Z"
          fill="#FFF0CE" stroke="#382929" stroke-width="2" stroke-miterlimit="10"/>
    <path fill-rule="evenodd" clip-rule="evenodd"
          d="M654.387 289.228C658.158 293.289 659.222 298.8 659.512 304.118C659.705 307.115 659.512 310.209 660.382 313.11C661.155 315.624 662.896 317.461 664.733 319.298C668.407 322.875 672.468 326.549 673.532 331.771C674.112 334.865 673.725 337.959 674.595 341.053C675.369 343.76 676.722 346.467 678.463 348.788C679.816 350.625 681.557 352.075 683.104 353.816C683.587 354.299 684.167 355.169 683.974 355.846C683.781 356.716 682.62 357.006 681.847 356.91C680.01 356.62 678.463 354.782 677.206 353.526C675.465 351.688 673.918 349.658 672.661 347.337C671.308 344.824 670.244 342.116 669.761 339.312C669.277 336.412 669.471 333.318 668.407 330.514C666.57 325.776 662.026 322.972 658.738 319.298C654.677 314.657 655.257 308.952 655.644 303.344C655.838 300.25 656.128 296.769 654.484 293.869C653.904 292.805 652.55 291.742 652.26 290.581C652.163 289.324 653.42 288.164 654.387 289.228Z"
          fill="#2B1C1C"/>
    <path d="M707.759 399.066H656.514C640.464 399.066 628.862 383.789 633.019 368.319L638.144 349.755H726.13L731.255 368.319C735.509 383.789 723.81 399.066 707.759 399.066Z"
          fill="#2B1C1C"/>
    <path d="M735.799 342.02H628.475V349.755H735.799V342.02Z" fill="#2B1C1C"/>
</svg>

