<svg width="480" height="480" viewBox="0 0 480 480" fill="none" xmlns="http://www.w3.org/2000/svg">
    <path d="M430.815 35.8518L431.704 34.8444C432.533 33.8963 434.015 33.7778 435.022 34.6074L436.03 35.4963L437.57 33.7778L436.563 32.8889C435.615 32.0593 435.496 30.5778 436.326 29.5704L437.215 28.563L435.496 27.0222L434.607 28.0296C433.778 28.9778 432.296 29.0963 431.289 28.2667L430.281 27.3778L428.741 29.0963L429.748 29.9852C430.696 30.8148 430.815 32.2963 429.985 33.3037L429.096 34.3111L430.815 35.8518Z"
          fill="#2B1C1C"/>
    <path d="M379.911 79.0519L380.444 78.4593C380.919 77.9259 381.748 77.8667 382.341 78.3407L382.933 78.8741L383.822 77.8667L383.23 77.3333C382.696 76.8593 382.637 76.0296 383.111 75.437L383.645 74.8445L382.637 73.9556L382.104 74.5482C381.63 75.0815 380.8 75.1407 380.207 74.6667L379.615 74.1333L378.726 75.1408L379.319 75.6741C379.852 76.1482 379.911 76.9778 379.437 77.5704L378.904 78.163L379.911 79.0519Z"
          fill="#2B1C1C"/>
    <path d="M460.622 112.83L461.037 112.415C461.393 112 462.044 111.941 462.459 112.296L462.874 112.711L463.526 111.941L463.111 111.526C462.696 111.17 462.637 110.518 462.993 110.104L463.407 109.689L462.637 109.037L462.222 109.452C461.867 109.867 461.215 109.926 460.8 109.57L460.385 109.156L459.733 109.926L460.148 110.341C460.563 110.696 460.622 111.348 460.267 111.763L459.852 112.178L460.622 112.83Z"
          fill="#2B1C1C"/>
    <path d="M420.8 86.5185L421.333 85.926C421.807 85.3926 422.637 85.3334 423.23 85.8074L423.822 86.3408L424.711 85.3334L424.118 84.8C423.585 84.326 423.526 83.4963 424 82.9037L424.533 82.3111L423.526 81.4222L422.993 82.0148C422.518 82.5482 421.689 82.6074 421.096 82.1334L420.504 81.6L419.615 82.6074L420.207 83.1408C420.741 83.6148 420.8 84.4445 420.326 85.0371L419.793 85.6297L420.8 86.5185Z"
          fill="#2B1C1C"/>
    <path d="M410.074 136.237L410.311 135.941C410.548 135.644 410.963 135.644 411.259 135.882L411.556 136.119L411.97 135.644L411.674 135.407C411.378 135.17 411.378 134.756 411.615 134.459L411.852 134.163L411.378 133.748L411.141 134.044C410.904 134.341 410.489 134.341 410.193 134.104L409.896 133.867L409.481 134.341L409.778 134.578C410.074 134.815 410.074 135.23 409.837 135.526L409.6 135.822L410.074 136.237Z"
          fill="#2B1C1C"/>
    <path d="M387.141 181.452L387.259 181.333C387.378 181.215 387.615 181.156 387.733 181.274L387.852 181.393L388.089 181.156L387.97 181.037C387.852 180.918 387.793 180.681 387.911 180.563L388.03 180.444L387.793 180.207L387.674 180.326C387.556 180.444 387.319 180.504 387.2 180.385L387.082 180.267L386.844 180.504L386.963 180.622C387.082 180.741 387.141 180.978 387.022 181.096L386.904 181.215L387.141 181.452Z"
          fill="#2B1C1C"/>
    <path d="M432.83 123.556L433.067 123.259C433.304 122.963 433.719 122.963 434.015 123.2L434.311 123.437L434.726 122.963L434.43 122.726C434.133 122.489 434.133 122.074 434.37 121.778L434.607 121.481L434.133 121.067L433.896 121.363C433.659 121.659 433.244 121.659 432.948 121.422L432.652 121.185L432.237 121.659L432.533 121.896C432.83 122.133 432.83 122.548 432.593 122.844L432.356 123.141L432.83 123.556Z"
          fill="#2B1C1C"/>
    <path d="M448.652 154.015L448.889 153.718C449.126 153.422 449.541 153.422 449.837 153.659L450.133 153.896L450.548 153.422L450.252 153.185C449.956 152.948 449.956 152.533 450.193 152.237L450.43 151.941L449.956 151.526L449.719 151.822C449.482 152.118 449.067 152.118 448.77 151.881L448.474 151.644L448.059 152.118L448.356 152.356C448.652 152.593 448.652 153.007 448.415 153.304L448.178 153.6L448.652 154.015Z"
          fill="#2B1C1C"/>
    <path d="M433.659 160.593L433.896 160.296C434.133 160 434.548 160 434.844 160.237L435.141 160.474L435.556 160L435.259 159.763C434.963 159.526 434.963 159.111 435.2 158.815L435.437 158.518L434.963 158.104L434.726 158.4C434.489 158.696 434.074 158.696 433.778 158.459L433.481 158.222L433.067 158.696L433.363 158.933C433.659 159.17 433.659 159.585 433.422 159.881L433.185 160.178L433.659 160.593Z"
          fill="#2B1C1C"/>
    <path d="M416 57.1259L416.119 57.0074C416.237 56.8889 416.474 56.8296 416.593 56.9481L416.711 57.0667L416.948 56.8296L416.83 56.7111C416.711 56.5926 416.652 56.3555 416.77 56.237L416.889 56.1185L416.652 55.8815L416.533 56C416.415 56.1185 416.178 56.1778 416.059 56.0592L415.941 55.9407L415.704 56.1778L415.822 56.2963C415.941 56.4148 416 56.6518 415.882 56.7704L415.763 56.8889L416 57.1259Z"
          fill="#2B1C1C"/>
    <path d="M375.763 39.7037L376 39.4074C376.237 39.1111 376.652 39.1111 376.948 39.3482L377.245 39.5852L377.659 39.1111L377.363 38.8741C377.067 38.6371 377.067 38.2223 377.304 37.926L377.541 37.6297L377.067 37.2148L376.83 37.5111C376.593 37.8074 376.178 37.8074 375.882 37.5704L375.585 37.3334L375.17 37.8074L375.467 38.0445C375.763 38.2815 375.763 38.6963 375.526 38.9926L375.289 39.2889L375.763 39.7037Z"
          fill="#2B1C1C"/>
    <path d="M391.467 59.0222L391.704 58.7259C391.941 58.4296 392.356 58.4296 392.652 58.6667L392.948 58.9037L393.363 58.4296L393.067 58.1926C392.77 57.9555 392.77 57.5407 393.007 57.2444L393.244 56.9481L392.77 56.5333L392.533 56.8296C392.296 57.1259 391.881 57.1259 391.585 56.8889L391.289 56.6518L390.874 57.1259L391.17 57.363C391.467 57.6 391.467 58.0148 391.23 58.3111L390.993 58.6074L391.467 59.0222Z"
          fill="#2B1C1C"/>
    <path d="M401.067 29.8666L401.185 29.7481C401.304 29.6296 401.541 29.5703 401.659 29.6889L401.778 29.8074L402.015 29.5703L401.896 29.4518C401.778 29.3333 401.719 29.0963 401.837 28.9777L401.956 28.8592L401.719 28.6222L401.6 28.7407C401.482 28.8592 401.244 28.9185 401.126 28.8L401.007 28.6815L400.77 28.9185L400.889 29.037C401.007 29.1555 401.067 29.3926 400.948 29.5111L400.83 29.6296L401.067 29.8666Z"
          fill="#2B1C1C"/>
    <path d="M449.007 74.963L449.126 74.8444C449.245 74.7259 449.482 74.6667 449.6 74.7852L449.719 74.9037L449.956 74.6667L449.837 74.5481C449.719 74.4296 449.659 74.1926 449.778 74.0741L449.896 73.9555L449.659 73.7185L449.541 73.837C449.422 73.9555 449.185 74.0148 449.067 73.8963L448.948 73.7778L448.711 74.0148L448.83 74.1333C448.948 74.2518 449.007 74.4889 448.889 74.6074L448.77 74.7259L449.007 74.963Z"
          fill="#2B1C1C"/>
    <path d="M473.126 140.978L473.244 140.859C473.363 140.741 473.6 140.681 473.718 140.8L473.837 140.918L474.074 140.681L473.956 140.563C473.837 140.444 473.778 140.207 473.896 140.089L474.015 139.97L473.778 139.733L473.659 139.852C473.541 139.97 473.304 140.03 473.185 139.911L473.067 139.793L472.83 140.03L472.948 140.148C473.067 140.267 473.126 140.504 473.007 140.622L472.889 140.741L473.126 140.978Z"
          fill="#2B1C1C"/>
    <path d="M457.837 182.993L457.955 182.874C458.074 182.756 458.311 182.696 458.43 182.815L458.548 182.933L458.785 182.696L458.667 182.578C458.548 182.459 458.489 182.222 458.607 182.104L458.726 181.985L458.489 181.748L458.37 181.867C458.252 181.985 458.015 182.044 457.896 181.926L457.778 181.807L457.541 182.044L457.659 182.163C457.778 182.281 457.837 182.519 457.718 182.637L457.6 182.756L457.837 182.993Z"
          fill="#2B1C1C"/>
    <path d="M412.563 208L412.682 207.881C412.8 207.763 413.037 207.704 413.156 207.822L413.274 207.941L413.511 207.704L413.393 207.585C413.274 207.467 413.215 207.23 413.333 207.111L413.452 206.993L413.215 206.755L413.096 206.874C412.978 206.993 412.741 207.052 412.622 206.933L412.504 206.815L412.267 207.052L412.385 207.17C412.504 207.289 412.563 207.526 412.444 207.644L412.326 207.763L412.563 208Z"
          fill="#2B1C1C"/>
    <path d="M395.496 106.193L395.733 105.896C395.97 105.6 396.385 105.6 396.681 105.837L396.978 106.074L397.393 105.6L397.096 105.363C396.8 105.126 396.8 104.711 397.037 104.415L397.274 104.119L396.8 103.704L396.563 104C396.326 104.296 395.911 104.296 395.615 104.059L395.318 103.822L394.904 104.296L395.2 104.533C395.496 104.77 395.496 105.185 395.259 105.482L395.022 105.778L395.496 106.193Z"
          fill="#2B1C1C"/>
    <path d="M392.83 153.778L393.067 153.481C393.304 153.185 393.719 153.185 394.015 153.422L394.311 153.659L394.726 153.185L394.43 152.948C394.133 152.711 394.133 152.296 394.37 152L394.607 151.704L394.133 151.289L393.896 151.585C393.659 151.881 393.244 151.881 392.948 151.644L392.652 151.407L392.237 151.881L392.533 152.118C392.83 152.355 392.83 152.77 392.593 153.067L392.356 153.363L392.83 153.778Z"
          fill="#2B1C1C"/>
    <path d="M413.037 480H480C480 443.259 449.778 413.037 413.037 413.037C376.296 413.037 346.074 443.259 346.074 480H413.037ZM352.296 474.074C353.659 460.089 359.822 447.111 369.956 436.919C381.57 425.304 396.859 418.963 413.037 418.963C429.215 418.963 444.504 425.363 456.119 436.919C466.311 447.111 472.415 460.089 473.778 474.074H418.963L431.881 461.156L427.674 456.948L413.037 471.645L398.4 457.007L394.193 461.215L407.111 474.074H352.296Z"
          fill="#2B1C1C"/>
    <path d="M388.148 480H91.8519V148.148C91.8519 66.3111 158.163 0 240 0C321.837 0 388.148 66.3111 388.148 148.148V480Z"
          fill="#2B1C1C"/>
    <path d="M358.519 171.852H299.259V219.259H358.519V171.852Z" fill="white"/>
    <path d="M358.518 248.889H240V296.296H358.518V248.889Z" fill="white"/>
    <path d="M358.519 325.926H180.741V373.333H358.519V325.926Z" fill="white"/>
    <path d="M358.518 402.963H121.482V450.37H358.518V402.963Z" fill="white"/>
    <path d="M480 474.074H0V480H480V474.074Z" fill="#2B1C1C"/>
    <path d="M187.259 152.296H185.541C183.881 152.296 182.519 150.933 182.519 149.274V147.556H179.556V149.274C179.556 150.933 178.193 152.296 176.533 152.296H174.815V155.259H176.533C178.193 155.259 179.556 156.622 179.556 158.281V160H182.519V158.281C182.519 156.622 183.881 155.259 185.541 155.259H187.259V152.296Z"
          fill="white"/>
    <path d="M174.815 192.356H173.807C172.859 192.356 172.089 191.585 172.089 190.637V189.63H170.37V190.637C170.37 191.585 169.6 192.356 168.652 192.356H167.704V194.074H168.711C169.659 194.074 170.43 194.844 170.43 195.793V196.8H172.148V195.793C172.148 194.844 172.919 194.074 173.867 194.074H174.874V192.356H174.815Z"
          fill="white"/>
    <path d="M220.444 153.126H219.674C218.963 153.126 218.37 152.533 218.37 151.822V151.111H217.126V151.881C217.126 152.593 216.533 153.185 215.822 153.185H215.111V154.43H215.881C216.593 154.43 217.185 155.022 217.185 155.733V156.504H218.43V155.733C218.43 155.022 219.022 154.43 219.733 154.43H220.504V153.126H220.444Z"
          fill="white"/>
    <path d="M139.259 86.163H138.489C137.778 86.163 137.185 85.5704 137.185 84.8593V84.1482H135.941V84.9186C135.941 85.6297 135.348 86.2223 134.637 86.2223H133.926V87.4667H134.696C135.407 87.4667 136 88.0593 136 88.7704V89.5408H137.244V88.7704C137.244 88.0593 137.837 87.4667 138.548 87.4667H139.318V86.163H139.259Z"
          fill="white"/>
    <path d="M160 284.681H159.23C158.519 284.681 157.926 284.089 157.926 283.378V282.667H156.681V283.437C156.681 284.148 156.089 284.741 155.378 284.741H154.667V285.985H155.437C156.148 285.985 156.741 286.578 156.741 287.289V288.059H157.985V287.289C157.985 286.578 158.578 285.985 159.289 285.985H160.059V284.681H160Z"
          fill="white"/>
    <path d="M147.556 146.726H146.548C145.6 146.726 144.83 145.956 144.83 145.007V144H143.111V145.007C143.111 145.956 142.341 146.726 141.393 146.726H140.444V148.444H141.452C142.4 148.444 143.17 149.215 143.17 150.163V151.17H144.889V150.163C144.889 149.215 145.659 148.444 146.607 148.444H147.615V146.726H147.556Z"
          fill="white"/>
    <path d="M204.444 115.141H203.97C203.496 115.141 203.141 114.785 203.141 114.311V113.778H202.311V114.252C202.311 114.726 201.956 115.082 201.482 115.082H200.889V115.911H201.363C201.837 115.911 202.193 116.267 202.193 116.741V117.215H203.022V116.741C203.022 116.267 203.378 115.911 203.852 115.911H204.326V115.141H204.444Z"
          fill="white"/>
    <path d="M267.259 99.0222H267.022C266.785 99.0222 266.607 98.8444 266.607 98.6074V98.3704H266.193V98.6074C266.193 98.8444 266.015 99.0222 265.778 99.0222H265.481V99.437H265.718C265.956 99.437 266.133 99.6148 266.133 99.8518V100.089H266.548V99.8518C266.548 99.6148 266.726 99.437 266.963 99.437H267.2V99.0222H267.259Z"
          fill="white"/>
    <path d="M294.518 128.652H294.281C294.044 128.652 293.867 128.474 293.867 128.237V128H293.452V128.237C293.452 128.474 293.274 128.652 293.037 128.652H292.741V129.067H292.978C293.215 129.067 293.393 129.244 293.393 129.481V129.719H293.807V129.481C293.807 129.244 293.985 129.067 294.222 129.067H294.459V128.652H294.518Z"
          fill="white"/>
    <path d="M252.444 147.141H251.97C251.496 147.141 251.141 146.785 251.141 146.311V145.778H250.311V146.252C250.311 146.726 249.956 147.082 249.482 147.082H248.889V147.911H249.363C249.837 147.911 250.193 148.267 250.193 148.741V149.215H251.022V148.741C251.022 148.267 251.378 147.911 251.852 147.911H252.326V147.141H252.444Z"
          fill="white"/>
    <path d="M173.037 103.882H172.563C172.089 103.882 171.733 103.526 171.733 103.052V102.519H170.904V102.993C170.904 103.467 170.548 103.822 170.074 103.822H169.481V104.652H169.956C170.43 104.652 170.785 105.007 170.785 105.482V105.956H171.615V105.482C171.615 105.007 171.97 104.652 172.444 104.652H172.918V103.882H173.037Z"
          fill="white"/>
    <path d="M189.037 62.9926H188.563C188.089 62.9926 187.733 62.637 187.733 62.163V61.6296H186.904V62.1037C186.904 62.5778 186.548 62.9333 186.074 62.9333H185.481V63.763H185.956C186.43 63.763 186.785 64.1185 186.785 64.5926V65.0667H187.615V64.5926C187.615 64.1185 187.97 63.763 188.444 63.763H188.919V62.9926H189.037Z"
          fill="white"/>
    <path d="M208 71.8815H207.526C207.052 71.8815 206.696 71.526 206.696 71.0519V70.5186H205.867V70.9926C205.867 71.4667 205.511 71.8223 205.037 71.8223H204.444V72.6519H204.919C205.393 72.6519 205.748 73.0074 205.748 73.4815V73.9556H206.578V73.4815C206.578 73.0074 206.933 72.6519 207.407 72.6519H207.881V71.8815H208Z"
          fill="white"/>
    <path d="M123.259 176.059H123.022C122.785 176.059 122.607 175.882 122.607 175.645V175.407H122.193V175.645C122.193 175.882 122.015 176.059 121.778 176.059H121.482V176.474H121.719C121.956 176.474 122.133 176.652 122.133 176.889V177.126H122.548V176.889C122.548 176.652 122.726 176.474 122.963 176.474H123.2V176.059H123.259Z"
          fill="white"/>
    <path d="M173.037 231.289H172.563C172.089 231.289 171.733 230.933 171.733 230.459V229.926H170.904V230.4C170.904 230.874 170.548 231.23 170.074 231.23H169.481V232.059H169.956C170.43 232.059 170.785 232.415 170.785 232.889V233.363H171.615V232.889C171.615 232.415 171.97 232.059 172.444 232.059H172.918V231.289H173.037Z"
          fill="white"/>
    <path d="M235.852 173.215H235.378C234.904 173.215 234.548 172.859 234.548 172.385V171.852H233.718V172.326C233.718 172.8 233.363 173.156 232.889 173.156H232.296V173.985H232.77C233.244 173.985 233.6 174.341 233.6 174.815V175.289H234.43V174.815C234.43 174.341 234.785 173.985 235.259 173.985H235.733V173.215H235.852Z"
          fill="white"/>
    <path d="M261.926 206.281H261.689C261.452 206.281 261.274 206.104 261.274 205.867V205.63H260.859V205.867C260.859 206.104 260.682 206.281 260.444 206.281H260.148V206.696H260.385C260.622 206.696 260.8 206.874 260.8 207.111V207.348H261.215V207.111C261.215 206.874 261.393 206.696 261.63 206.696H261.867V206.281H261.926Z"
          fill="white"/>
    <path d="M125.037 269.689H124.8C124.563 269.689 124.385 269.511 124.385 269.274V269.037H123.97V269.274C123.97 269.511 123.793 269.689 123.556 269.689H123.259V270.104H123.496C123.733 270.104 123.911 270.282 123.911 270.519V270.756H124.326V270.519C124.326 270.282 124.504 270.104 124.741 270.104H124.978V269.689H125.037Z"
          fill="white"/>
    <path d="M126.815 317.096H126.578C126.341 317.096 126.163 316.919 126.163 316.682V316.444H125.748V316.682C125.748 316.919 125.57 317.096 125.333 317.096H125.037V317.511H125.274C125.511 317.511 125.689 317.689 125.689 317.926V318.163H126.104V317.926C126.104 317.689 126.281 317.511 126.519 317.511H126.756V317.096H126.815Z"
          fill="white"/>
    <path d="M140.444 229.511H139.97C139.496 229.511 139.141 229.156 139.141 228.682V228.148H138.311V228.622C138.311 229.096 137.956 229.452 137.482 229.452H136.889V230.282H137.363C137.837 230.282 138.193 230.637 138.193 231.111V231.585H139.022V231.111C139.022 230.637 139.378 230.282 139.852 230.282H140.326V229.511H140.444Z"
          fill="white"/>
    <path d="M145.778 198.104H145.304C144.83 198.104 144.474 197.748 144.474 197.274V196.741H143.644V197.215C143.644 197.689 143.289 198.044 142.815 198.044H142.222V198.874H142.696C143.17 198.874 143.526 199.23 143.526 199.704V200.178H144.356V199.704C144.356 199.23 144.711 198.874 145.185 198.874H145.659V198.104H145.778Z"
          fill="white"/>
    <path d="M190.815 271.467H190.578C190.341 271.467 190.163 271.289 190.163 271.052V270.815H189.748V271.052C189.748 271.289 189.57 271.467 189.333 271.467H189.037V271.881H189.274C189.511 271.881 189.689 272.059 189.689 272.296V272.533H190.104V272.296C190.104 272.059 190.281 271.881 190.518 271.881H190.755V271.467H190.815Z"
          fill="white"/>
    <path d="M160.593 259.615H160.356C160.119 259.615 159.941 259.437 159.941 259.2V258.963H159.526V259.2C159.526 259.437 159.348 259.615 159.111 259.615H158.815V260.03H159.052C159.289 260.03 159.467 260.207 159.467 260.444V260.681H159.881V260.444C159.881 260.207 160.059 260.03 160.296 260.03H160.533V259.615H160.593Z"
          fill="white"/>
    <path d="M148.148 340.8H147.911C147.674 340.8 147.496 340.622 147.496 340.385V340.148H147.081V340.385C147.081 340.622 146.904 340.8 146.667 340.8H146.37V341.215H146.607C146.844 341.215 147.022 341.393 147.022 341.63V341.867H147.437V341.63C147.437 341.393 147.615 341.215 147.852 341.215H148.089V340.8H148.148Z"
          fill="white"/>
    <path d="M122.074 356.8H121.837C121.6 356.8 121.422 356.622 121.422 356.385V356.148H121.007V356.385C121.007 356.622 120.83 356.8 120.593 356.8H120.296V357.215H120.533C120.77 357.215 120.948 357.393 120.948 357.63V357.867H121.363V357.63C121.363 357.393 121.541 357.215 121.778 357.215H122.015V356.8H122.074Z"
          fill="white"/>
    <path d="M111.407 287.467H111.17C110.933 287.467 110.756 287.289 110.756 287.052V286.815H110.341V287.052C110.341 287.289 110.163 287.467 109.926 287.467H109.63V287.881H109.867C110.104 287.881 110.281 288.059 110.281 288.296V288.533H110.696V288.296C110.696 288.059 110.874 287.881 111.111 287.881H111.348V287.467H111.407Z"
          fill="white"/>
    <path d="M109.63 213.393H109.393C109.156 213.393 108.978 213.215 108.978 212.978V212.741H108.563V212.978C108.563 213.215 108.385 213.393 108.148 213.393H107.852V213.807H108.089C108.326 213.807 108.504 213.985 108.504 214.222V214.459H108.919V214.222C108.919 213.985 109.096 213.807 109.333 213.807H109.57V213.393H109.63Z"
          fill="white"/>
    <path d="M112.593 129.244H112.356C112.119 129.244 111.941 129.067 111.941 128.83V128.593H111.526V128.83C111.526 129.067 111.348 129.244 111.111 129.244H110.815V129.659H111.052C111.289 129.659 111.467 129.837 111.467 130.074V130.311H111.881V130.074C111.881 129.837 112.059 129.659 112.296 129.659H112.533V129.244H112.593Z"
          fill="white"/>
    <path d="M155.852 50.4297H155.615C155.378 50.4297 155.2 50.2519 155.2 50.0149V49.7778H154.785V50.0149C154.785 50.2519 154.607 50.4297 154.37 50.4297H154.074V50.8445H154.311C154.548 50.8445 154.726 51.0223 154.726 51.2593V51.5556H155.141V51.3186C155.141 51.0815 155.319 50.9038 155.556 50.9038H155.793V50.4297H155.852Z"
          fill="white"/>
    <path d="M209.185 29.6888H208.948C208.711 29.6888 208.533 29.5111 208.533 29.274V29.037H208.119V29.274C208.119 29.5111 207.941 29.6888 207.704 29.6888H207.407V30.1037H207.645C207.882 30.1037 208.059 30.2814 208.059 30.5185V30.8148H208.474V30.5777C208.474 30.3407 208.652 30.1629 208.889 30.1629H209.126V29.6888H209.185Z"
          fill="white"/>
    <path d="M271.407 52.2074H271.17C270.933 52.2074 270.756 52.0296 270.756 51.7926V51.5555H270.341V51.7926C270.341 52.0296 270.163 52.2074 269.926 52.2074H269.63V52.6222H269.867C270.104 52.6222 270.282 52.8 270.282 53.037V53.3333H270.696V53.0963C270.696 52.8592 270.874 52.6815 271.111 52.6815H271.348V52.2074H271.407Z"
          fill="white"/>
    <path d="M206.222 192.77H205.748C205.274 192.77 204.918 192.415 204.918 191.941V191.407H204.089V191.882C204.089 192.356 203.733 192.711 203.259 192.711H202.667V193.541H203.141C203.615 193.541 203.97 193.896 203.97 194.37V194.845H204.8V194.37C204.8 193.896 205.155 193.541 205.63 193.541H206.104V192.77H206.222Z"
          fill="white"/>
    <path d="M235.852 116.919H235.378C234.904 116.919 234.548 116.563 234.548 116.089V115.556H233.718V116.03C233.718 116.504 233.363 116.859 232.889 116.859H232.296V117.689H232.77C233.244 117.689 233.6 118.044 233.6 118.519V118.993H234.43V118.519C234.43 118.044 234.785 117.689 235.259 117.689H235.733V116.919H235.852Z"
          fill="white"/>
</svg>

