<svg width="69" height="69" viewBox="0 0 69 69" fill="none" xmlns="http://www.w3.org/2000/svg">
<path d="M57.3642 57.8577H32.328C29.7679 57.8577 27.6924 55.7821 27.6924 53.222V12.0731C27.6924 9.51306 29.7679 7.4375 32.328 7.4375H57.3642C59.9243 7.4375 61.9998 9.51306 61.9998 12.0731V53.222C61.9998 55.7821 59.9243 57.8577 57.3642 57.8577Z" fill="url(#paint0_linear)"/>
<path d="M27.6924 49.0449V53.2221C27.6924 55.7822 29.7679 57.8577 32.328 57.8577H57.3642C59.9243 57.8577 61.9998 55.7822 61.9998 53.2221V49.0449H27.6924Z" fill="url(#paint1_linear)"/>
<path d="M55.4406 49.045H34.2513C32.9687 49.045 31.9292 48.0055 31.9292 46.7229V14.127C31.9292 12.8444 32.9687 11.8049 34.2513 11.8049H55.4406C56.7231 11.8049 57.7626 12.8444 57.7626 14.127V46.7229C57.7622 48.0055 56.7227 49.045 55.4406 49.045Z" fill="url(#paint2_linear)"/>
<path d="M47.4809 53.4516C47.4809 54.9059 46.3017 56.0851 44.8469 56.0851C43.3926 56.0851 42.2134 54.9059 42.2134 53.4516C42.2134 51.9968 43.3926 50.8176 44.8469 50.8176C46.3017 50.8176 47.4809 51.9968 47.4809 53.4516Z" fill="url(#paint3_linear)"/>
<path d="M44.1533 34.8158H55.8338V36.5333H44.1533V34.8158Z" fill="url(#paint4_linear)"/>
<path d="M44.1533 39.0605H55.8338V40.7781H44.1533V39.0605Z" fill="url(#paint5_linear)"/>
<path d="M44.1533 43.3053H53.4545V45.0228H44.1533V43.3053Z" fill="url(#paint6_linear)"/>
<path d="M41.3513 25.2572C40.9291 24.7061 40.2661 24.3489 39.5179 24.3489H31.9292V46.7229C31.9292 48.0055 32.9687 49.045 34.2513 49.045H55.4406C56.7227 49.045 57.7626 48.0055 57.7626 46.7229V41.6682L41.3513 25.2572Z" fill="url(#paint7_linear)"/>
<path d="M39.5182 62.4742H12.1069C10.8307 62.4742 9.79639 61.4394 9.79639 60.1632V26.6599C9.79639 25.3837 10.8307 24.3489 12.1069 24.3489H39.5186C40.7944 24.3489 41.8292 25.3837 41.8292 26.6599V60.1632C41.8292 61.4394 40.7944 62.4742 39.5182 62.4742Z" fill="url(#paint8_linear)"/>
<path d="M12.1069 62.474H39.5186C40.7944 62.474 41.8292 61.4392 41.8292 60.163V57.7747L37.4324 53.3779C37.0094 52.9127 36.4001 52.6208 35.7221 52.6208H9.79639V60.1635C9.79639 61.4392 10.8307 62.474 12.1069 62.474Z" fill="url(#paint9_linear)"/>
<path d="M35.7222 52.6208H8.31055C7.03436 52.6208 6 53.6552 6 54.9314V57.9772C6 60.4608 8.01318 62.474 10.4963 62.474H39.7486C38.801 62.474 38.0328 61.7058 38.0328 60.7582V54.9314C38.0328 53.6552 36.9984 52.6208 35.7222 52.6208Z" fill="url(#paint10_linear)"/>
<path d="M13.5586 43.7971H38.0684V45.137H13.5586V43.7971Z" fill="#A1B5D8"/>
<path d="M13.5586 49.0734H33.0756V50.4132H13.5586V49.0734Z" fill="#A1B5D8"/>
<path d="M15.4948 40.381L14.5801 39.4663L21.1733 32.873L25.8666 37.5663L35.234 28.199L36.1487 29.1137L25.8666 39.3958L21.1733 34.7029L15.4948 40.381Z" fill="url(#paint11_linear)"/>
<path d="M22.2556 32.7831C21.9855 32.4921 21.601 32.3088 21.1725 32.3088C20.3556 32.3088 19.6934 32.9711 19.6934 33.788C19.6934 34.2165 19.8766 34.601 20.1676 34.871L24.0705 38.7739C24.3405 39.0649 24.7255 39.2482 25.1536 39.2482C25.9705 39.2482 26.6327 38.5859 26.6327 37.769C26.6327 37.3405 26.4498 36.956 26.1589 36.686L22.2556 32.7831Z" fill="url(#paint12_linear)"/>
<path d="M16.1208 38.9188C15.8508 38.6278 15.4658 38.4449 15.0377 38.4449C14.2208 38.4449 13.5586 39.1072 13.5586 39.9241C13.5586 40.3522 13.7415 40.7371 14.0324 41.0071L17.9357 44.91C18.2057 45.201 18.5903 45.3843 19.0188 45.3843C19.8357 45.3843 20.4979 44.722 20.4979 43.9052C20.4979 43.4766 20.3146 43.0921 20.0237 42.8221L16.1208 38.9188Z" fill="url(#paint13_linear)"/>
<path d="M16.5168 39.9241C16.5168 40.741 15.8546 41.4032 15.0377 41.4032C14.2208 41.4032 13.5586 40.741 13.5586 39.9241C13.5586 39.1072 14.2208 38.4449 15.0377 38.4449C15.8546 38.4449 16.5168 39.1072 16.5168 39.9241Z" fill="url(#paint14_linear)"/>
<path d="M22.6516 33.788C22.6516 34.6049 21.9894 35.2671 21.1725 35.2671C20.3556 35.2671 19.6934 34.6049 19.6934 33.788C19.6934 32.9711 20.3556 32.3088 21.1725 32.3088C21.9894 32.3088 22.6516 32.9711 22.6516 33.788Z" fill="url(#paint15_linear)"/>
<path d="M26.8712 37.435C26.6008 37.144 26.2162 36.9612 25.7877 36.9612C24.9708 36.9612 24.3086 37.6234 24.3086 38.4403C24.3086 38.8684 24.4919 39.2534 24.7828 39.5234L28.6857 43.4263C28.9562 43.7172 29.3407 43.9005 29.7688 43.9005C30.5861 43.9005 31.2483 43.2383 31.2483 42.4214C31.2483 41.9929 31.0651 41.6083 30.7741 41.3383L26.8712 37.435Z" fill="url(#paint16_linear)"/>
<path d="M27.2673 38.4403C27.2673 39.2572 26.605 39.9194 25.7877 39.9194C24.9708 39.9194 24.3086 39.2572 24.3086 38.4403C24.3086 37.6234 24.9708 36.9612 25.7877 36.9612C26.605 36.9612 27.2673 37.6234 27.2673 38.4403Z" fill="url(#paint17_linear)"/>
<path d="M36.7404 27.7787C36.4704 27.4878 36.0859 27.3049 35.6573 27.3049C34.8405 27.3049 34.1782 27.9672 34.1782 28.7841C34.1782 29.2122 34.3615 29.5971 34.6525 29.8671L38.5554 33.77C38.8254 34.061 39.2099 34.2443 39.6384 34.2443C40.4553 34.2443 41.1176 33.582 41.1176 32.7651C41.1176 32.3366 40.9343 31.9521 40.6433 31.6821L36.7404 27.7787Z" fill="url(#paint18_linear)"/>
<path d="M37.1365 28.7841C37.1365 29.601 36.4742 30.2632 35.6573 30.2632C34.8405 30.2632 34.1782 29.601 34.1782 28.7841C34.1782 27.9672 34.8405 27.3049 35.6573 27.3049C36.4742 27.3049 37.1365 27.9672 37.1365 28.7841Z" fill="url(#paint19_linear)"/>
<defs>
<linearGradient id="paint0_linear" x1="39.2348" y1="32.6476" x2="67.9323" y2="32.6476" gradientUnits="userSpaceOnUse">
<stop stop-color="#3B395F"/>
<stop offset="0.0633" stop-color="#37355A"/>
<stop offset="0.4033" stop-color="#232543"/>
<stop offset="0.7232" stop-color="#171B35"/>
<stop offset="1" stop-color="#131830"/>
</linearGradient>
<linearGradient id="paint1_linear" x1="44.846" y1="53.0314" x2="44.846" y2="57.1556" gradientUnits="userSpaceOnUse">
<stop stop-color="#131830" stop-opacity="0"/>
<stop offset="1" stop-color="#131830"/>
</linearGradient>
<linearGradient id="paint2_linear" x1="36.2234" y1="21.8025" x2="70.392" y2="55.9712" gradientUnits="userSpaceOnUse">
<stop stop-color="#FF4974"/>
<stop offset="0.3262" stop-color="#FE4672"/>
<stop offset="0.5324" stop-color="#FB3E6C"/>
<stop offset="0.7054" stop-color="#F52F60"/>
<stop offset="0.8591" stop-color="#EE1A51"/>
<stop offset="1" stop-color="#E4003D"/>
</linearGradient>
<linearGradient id="paint3_linear" x1="45.8395" y1="54.4438" x2="41.4363" y2="50.0406" gradientUnits="userSpaceOnUse">
<stop stop-color="#3B395F"/>
<stop offset="0.0633" stop-color="#37355A"/>
<stop offset="0.4033" stop-color="#232543"/>
<stop offset="0.7232" stop-color="#171B35"/>
<stop offset="1" stop-color="#131830"/>
</linearGradient>
<linearGradient id="paint4_linear" x1="48.4329" y1="34.1139" x2="57.5048" y2="43.1858" gradientUnits="userSpaceOnUse">
<stop stop-color="#FFFCF8"/>
<stop offset="0.1875" stop-color="#FAF8F6"/>
<stop offset="0.4041" stop-color="#ECEEF2"/>
<stop offset="0.6353" stop-color="#D5DCEA"/>
<stop offset="0.875" stop-color="#B5C4DF"/>
<stop offset="1" stop-color="#A1B5D8"/>
</linearGradient>
<linearGradient id="paint5_linear" x1="46.5496" y1="36.4753" x2="55.6215" y2="45.5472" gradientUnits="userSpaceOnUse">
<stop stop-color="#FFFCF8"/>
<stop offset="0.1875" stop-color="#FAF8F6"/>
<stop offset="0.4041" stop-color="#ECEEF2"/>
<stop offset="0.6353" stop-color="#D5DCEA"/>
<stop offset="0.875" stop-color="#B5C4DF"/>
<stop offset="1" stop-color="#A1B5D8"/>
</linearGradient>
<linearGradient id="paint6_linear" x1="44.0644" y1="39.4245" x2="53.1689" y2="48.529" gradientUnits="userSpaceOnUse">
<stop stop-color="#FFFCF8"/>
<stop offset="0.1875" stop-color="#FAF8F6"/>
<stop offset="0.4041" stop-color="#ECEEF2"/>
<stop offset="0.6353" stop-color="#D5DCEA"/>
<stop offset="0.875" stop-color="#B5C4DF"/>
<stop offset="1" stop-color="#A1B5D8"/>
</linearGradient>
<linearGradient id="paint7_linear" x1="47.3525" y1="47.1688" x2="34.0717" y2="33.888" gradientUnits="userSpaceOnUse">
<stop stop-color="#E4003D" stop-opacity="0"/>
<stop offset="0.5838" stop-color="#BD294B" stop-opacity="0.584314"/>
<stop offset="1" stop-color="#A64153"/>
</linearGradient>
<linearGradient id="paint8_linear" x1="15.3345" y1="27.6606" x2="44.6962" y2="71.7978" gradientUnits="userSpaceOnUse">
<stop stop-color="#FFFCF8"/>
<stop offset="0.1875" stop-color="#FAF8F6"/>
<stop offset="0.4041" stop-color="#ECEEF2"/>
<stop offset="0.6353" stop-color="#D5DCEA"/>
<stop offset="0.875" stop-color="#B5C4DF"/>
<stop offset="1" stop-color="#A1B5D8"/>
</linearGradient>
<linearGradient id="paint9_linear" x1="34.5452" y1="68.1781" x2="24.2265" y2="57.8594" gradientUnits="userSpaceOnUse">
<stop stop-color="#A1B5D8" stop-opacity="0"/>
<stop offset="0.0343" stop-color="#9FB3D5" stop-opacity="0.035294"/>
<stop offset="0.4515" stop-color="#8898AF" stop-opacity="0.45098"/>
<stop offset="0.788" stop-color="#798898" stop-opacity="0.788235"/>
<stop offset="1" stop-color="#748290"/>
</linearGradient>
<linearGradient id="paint10_linear" x1="22.8742" y1="57.8094" x2="22.8742" y2="64.602" gradientUnits="userSpaceOnUse">
<stop stop-color="#FFFCF8"/>
<stop offset="0.1875" stop-color="#FAF8F6"/>
<stop offset="0.4041" stop-color="#ECEEF2"/>
<stop offset="0.6353" stop-color="#D5DCEA"/>
<stop offset="0.875" stop-color="#B5C4DF"/>
<stop offset="1" stop-color="#A1B5D8"/>
</linearGradient>
<linearGradient id="paint11_linear" x1="14.5801" y1="34.29" x2="36.1488" y2="34.29" gradientUnits="userSpaceOnUse">
<stop stop-color="#3B395F"/>
<stop offset="0.0633" stop-color="#37355A"/>
<stop offset="0.4033" stop-color="#232543"/>
<stop offset="0.7232" stop-color="#171B35"/>
<stop offset="1" stop-color="#131830"/>
</linearGradient>
<linearGradient id="paint12_linear" x1="23.857" y1="36.4725" x2="18.4183" y2="31.0337" gradientUnits="userSpaceOnUse">
<stop stop-color="#A1B5D8" stop-opacity="0"/>
<stop offset="1" stop-color="#748290"/>
</linearGradient>
<linearGradient id="paint13_linear" x1="17.7221" y1="42.6084" x2="12.2833" y2="37.1696" gradientUnits="userSpaceOnUse">
<stop stop-color="#A1B5D8" stop-opacity="0"/>
<stop offset="1" stop-color="#748290"/>
</linearGradient>
<linearGradient id="paint14_linear" x1="13.7401" y1="38.3862" x2="15.7124" y2="40.7236" gradientUnits="userSpaceOnUse">
<stop stop-color="#FFC738"/>
<stop offset="0.4286" stop-color="#FFBB23"/>
<stop offset="1" stop-color="#FFA700"/>
</linearGradient>
<linearGradient id="paint15_linear" x1="19.8751" y1="32.2503" x2="21.8474" y2="34.5877" gradientUnits="userSpaceOnUse">
<stop stop-color="#FFC738"/>
<stop offset="0.4286" stop-color="#FFBB23"/>
<stop offset="1" stop-color="#FFA700"/>
</linearGradient>
<linearGradient id="paint16_linear" x1="28.4724" y1="41.1247" x2="23.0336" y2="35.6859" gradientUnits="userSpaceOnUse">
<stop stop-color="#A1B5D8" stop-opacity="0"/>
<stop offset="1" stop-color="#748290"/>
</linearGradient>
<linearGradient id="paint17_linear" x1="24.4904" y1="36.9025" x2="26.4627" y2="39.2399" gradientUnits="userSpaceOnUse">
<stop stop-color="#FFC738"/>
<stop offset="0.4286" stop-color="#FFBB23"/>
<stop offset="1" stop-color="#FFA700"/>
</linearGradient>
<linearGradient id="paint18_linear" x1="38.3418" y1="31.4685" x2="32.9031" y2="26.0297" gradientUnits="userSpaceOnUse">
<stop stop-color="#A1B5D8" stop-opacity="0"/>
<stop offset="1" stop-color="#748290"/>
</linearGradient>
<linearGradient id="paint19_linear" x1="34.3599" y1="27.2463" x2="36.3322" y2="29.5838" gradientUnits="userSpaceOnUse">
<stop stop-color="#FFC738"/>
<stop offset="0.4286" stop-color="#FFBB23"/>
<stop offset="1" stop-color="#FFA700"/>
</linearGradient>
</defs>
</svg>
