<svg width="69" height="69" viewBox="0 0 69 69" fill="none" xmlns="http://www.w3.org/2000/svg">
<g clip-path="url(#clip0)">
<path d="M33.6164 57.978C46.0947 57.978 56.2103 47.8624 56.2103 35.3841C56.2103 22.9058 46.0947 12.7902 33.6164 12.7902C21.1381 12.7902 11.0225 22.9058 11.0225 35.3841C11.0225 47.8624 21.1381 57.978 33.6164 57.978Z" fill="url(#paint0_linear)"/>
<path d="M49.122 13.0757C49.122 13.0757 36.4977 25.7005 36.4967 25.7015L32.8505 35.3554C32.7681 35.5858 32.8281 35.8126 32.9656 35.9708L52.5172 55.5159C57.8807 50.4782 61.2318 43.3229 61.2318 35.384C61.2319 25.8802 56.4308 18.0442 49.122 13.0757Z" fill="url(#paint1_linear)"/>
<path d="M33.616 7.76794C18.3644 7.76794 6 20.1324 6 35.384C6 50.6355 18.3644 63 33.616 63C48.8677 63 61.232 50.6356 61.232 35.384C61.232 20.1323 48.8676 7.76794 33.616 7.76794ZM33.616 56.4905C21.9595 56.4905 12.5095 47.0405 12.5095 35.384C12.5095 23.7274 21.9595 14.2775 33.616 14.2775C45.2726 14.2775 54.7225 23.7274 54.7225 35.384C54.7225 47.0405 45.2726 56.4905 33.616 56.4905Z" fill="url(#paint2_linear)"/>
<path d="M33.616 20.9125C25.6241 20.9125 19.1445 27.392 19.1445 35.384C19.1445 43.3759 25.6241 49.8555 33.616 49.8555C41.608 49.8555 48.0875 43.3759 48.0875 35.384C48.0875 27.392 41.608 20.9125 33.616 20.9125ZM33.616 42.9001C29.4646 42.9001 26.1001 39.5355 26.1001 35.3841C26.1001 31.2326 29.4646 27.8681 33.616 27.8681C37.7675 27.8681 41.132 31.2326 41.132 35.3841C41.132 39.5355 37.7675 42.9001 33.616 42.9001Z" fill="url(#paint3_linear)"/>
<path d="M33.616 38.248C35.1977 38.248 36.48 36.9658 36.48 35.384C36.48 33.8023 35.1977 32.52 33.616 32.52C32.0342 32.52 30.752 33.8023 30.752 35.384C30.752 36.9658 32.0342 38.248 33.616 38.248Z" fill="url(#paint4_linear)"/>
<path d="M56.8375 20.4326C54.4904 17.4513 51.7928 14.89 49.1224 13.0762C49.1224 13.0762 47.1421 15.0565 44.75 17.4486C50.7372 21.1745 54.7223 27.8136 54.7223 35.3842C54.7223 41.5268 52.0983 47.0558 47.91 50.9112L52.517 55.5168C57.8809 50.4802 61.2318 43.3229 61.2318 35.384C61.2318 29.8743 59.6183 24.741 56.8375 20.4326Z" fill="url(#paint5_linear)"/>
<path d="M39.8675 22.3312C37.9486 24.2501 36.4961 25.7012 36.4961 25.7012L35.5796 28.1288C38.7791 28.9908 41.1317 31.912 41.1317 35.3843C41.1317 37.7751 40.0161 39.9041 38.2773 41.2815L43.2115 46.2144C46.2024 43.5658 48.0871 39.6953 48.0871 35.3843C48.0874 29.6317 44.7296 24.6619 39.8675 22.3312Z" fill="url(#paint6_linear)"/>
<path d="M33.9155 32.5365L32.8504 35.3555C32.7686 35.586 32.8272 35.8124 32.9649 35.9706L34.9261 37.9318C35.8495 37.4558 36.4795 36.4944 36.4795 35.3843C36.4795 33.9031 35.3557 32.6852 33.9155 32.5365Z" fill="url(#paint7_linear)"/>
<path d="M36.497 25.1558L33.6358 33.1594L33.2816 35.3841C33.1052 35.8776 35.8407 35.3642 35.8407 35.3642L43.8443 32.5031C45.8793 30.4681 38.532 23.1208 36.497 25.1558Z" fill="url(#paint8_linear)"/>
<path d="M61.5851 14.7637L43.8445 32.503C43.6434 32.1543 43.3377 31.8459 42.9461 31.6273C42.411 31.3309 41.5743 31.4932 40.995 31.6689C40.869 31.7064 40.7537 31.6408 40.7067 31.5402C40.6771 31.4798 40.6718 31.4061 40.704 31.3336C40.7054 31.3336 40.7054 31.3323 40.7054 31.3323C40.7375 31.2585 40.7657 31.1834 40.7898 31.1084C40.8006 31.0722 40.8112 31.0361 40.822 30.9998C40.8233 30.9972 40.8233 30.9958 40.8233 30.9931C40.8541 30.8765 40.8755 30.7598 40.8876 30.6405C40.8917 30.6016 40.8943 30.5614 40.8971 30.5224C40.9004 30.4576 40.901 30.3928 40.8989 30.3281C40.8842 29.8747 40.7361 29.4245 40.4546 29.042C40.3862 28.9482 40.3097 28.8597 40.2253 28.7752C40.1407 28.6908 40.0524 28.6144 39.9585 28.5459C39.5213 28.2241 38.9957 28.0766 38.4781 28.1034C38.4392 28.1061 38.3989 28.1088 38.3601 28.1128C38.2407 28.1248 38.1227 28.1463 38.0074 28.1771C38.0047 28.1771 38.0033 28.1771 38.0007 28.1784C37.9644 28.1892 37.9282 28.1998 37.8921 28.2106C37.8532 28.2227 37.8156 28.2361 37.7781 28.2508C37.7419 28.2642 37.7056 28.2789 37.6695 28.295C37.6682 28.295 37.6682 28.295 37.6669 28.2964C37.5944 28.3285 37.5207 28.3232 37.4603 28.2937C37.3597 28.2468 37.2941 28.1314 37.3316 28.0054C37.5073 27.4261 37.6695 26.5907 37.3732 26.0557C37.1546 25.6628 36.8476 25.357 36.4976 25.156L54.2368 7.41539C54.792 6.86154 55.6904 6.86154 56.2443 7.41539L57.2916 8.4627L60.538 11.7092L61.5853 12.7565C62.139 13.3101 62.139 14.2086 61.5851 14.7637Z" fill="url(#paint9_linear)"/>
<path d="M60.5378 11.7091L40.7067 31.5402C40.6772 31.4799 40.6718 31.4062 40.7041 31.3337C40.7054 31.3337 40.7054 31.3324 40.7054 31.3324C40.7375 31.2586 40.877 30.7584 40.8878 30.6404C40.8931 30.6002 40.8958 30.5613 40.8972 30.5224C40.924 30.0047 40.7765 29.4791 40.4547 29.042C40.3863 28.9481 40.3099 28.8596 40.2254 28.7752C40.1409 28.6907 40.0525 28.6143 39.9586 28.5459C39.5215 28.2241 38.9958 28.0766 38.4782 28.1034C38.4394 28.1047 38.4005 28.1074 38.3602 28.1127C38.2421 28.1235 38.1242 28.1449 38.0075 28.1771C38.0049 28.1771 38.0034 28.1771 38.0008 28.1784C37.9646 28.1877 37.7058 28.279 37.6696 28.295C37.6683 28.295 37.6683 28.295 37.667 28.2963C37.5945 28.3285 37.5208 28.3231 37.4604 28.2937L57.2914 8.46265L60.5378 11.7091Z" fill="url(#paint10_linear)"/>
<path d="M34.9099 34.0903C34.524 33.7044 34.0925 33.3946 33.6361 33.1593L32.851 35.3555C32.6745 35.8489 33.1512 36.3256 33.6446 36.1492L35.8408 35.3641C35.6056 34.9077 35.2959 34.4763 34.9099 34.0903Z" fill="url(#paint11_linear)"/>
</g>
<defs>
<linearGradient id="paint0_linear" x1="24.5784" y1="26.3461" x2="55.0138" y2="56.7815" gradientUnits="userSpaceOnUse">
<stop stop-color="white"/>
<stop offset="1" stop-color="#C7E9FF"/>
</linearGradient>
<linearGradient id="paint1_linear" x1="52.1471" y1="37.2333" x2="44.4188" y2="27.6865" gradientUnits="userSpaceOnUse">
<stop stop-color="#7ACBFF" stop-opacity="0"/>
<stop offset="1" stop-color="#2F73A0"/>
</linearGradient>
<linearGradient id="paint2_linear" x1="22.5692" y1="24.3371" x2="59.7693" y2="61.5373" gradientUnits="userSpaceOnUse">
<stop stop-color="#FF4181"/>
<stop offset="1" stop-color="#843561"/>
</linearGradient>
<linearGradient id="paint3_linear" x1="27.8273" y1="29.5952" x2="47.3209" y2="49.0889" gradientUnits="userSpaceOnUse">
<stop stop-color="#FF4181"/>
<stop offset="1" stop-color="#843561"/>
</linearGradient>
<linearGradient id="paint4_linear" x1="32.4703" y1="34.2383" x2="36.3285" y2="38.0965" gradientUnits="userSpaceOnUse">
<stop stop-color="#FF4181"/>
<stop offset="1" stop-color="#843561"/>
</linearGradient>
<linearGradient id="paint5_linear" x1="55.6786" y1="38.7793" x2="45.5408" y2="28.6414" gradientUnits="userSpaceOnUse">
<stop stop-color="#843561" stop-opacity="0"/>
<stop offset="1" stop-color="#3A2F4D"/>
</linearGradient>
<linearGradient id="paint6_linear" x1="51.1521" y1="43.3059" x2="41.0143" y2="33.1682" gradientUnits="userSpaceOnUse">
<stop stop-color="#843561" stop-opacity="0"/>
<stop offset="1" stop-color="#3A2F4D"/>
</linearGradient>
<linearGradient id="paint7_linear" x1="47.0478" y1="47.4098" x2="36.91" y2="37.272" gradientUnits="userSpaceOnUse">
<stop stop-color="#843561" stop-opacity="0"/>
<stop offset="1" stop-color="#3A2F4D"/>
</linearGradient>
<linearGradient id="paint8_linear" x1="33.8952" y1="27.7794" x2="41.2414" y2="35.1256" gradientUnits="userSpaceOnUse">
<stop stop-color="#FFE0EA"/>
<stop offset="1" stop-color="#FFC0D5"/>
</linearGradient>
<linearGradient id="paint9_linear" x1="36.4976" y1="19.7515" x2="62.0005" y2="19.7515" gradientUnits="userSpaceOnUse">
<stop stop-color="#FFCE47"/>
<stop offset="1" stop-color="#FF9356"/>
</linearGradient>
<linearGradient id="paint10_linear" x1="52.0476" y1="23.0501" x2="44.6304" y2="15.633" gradientUnits="userSpaceOnUse">
<stop stop-color="#FFCE47"/>
<stop offset="1" stop-color="#FF9356"/>
</linearGradient>
<linearGradient id="paint11_linear" x1="33.7502" y1="34.8272" x2="35.6246" y2="36.7016" gradientUnits="userSpaceOnUse">
<stop stop-color="#2F73A0"/>
<stop offset="1" stop-color="#174461"/>
</linearGradient>
<clipPath id="clip0">
<rect width="56" height="56" fill="white" transform="translate(6 7)"/>
</clipPath>
</defs>
</svg>
