<svg width="69" height="70" viewBox="0 0 69 70" fill="none" xmlns="http://www.w3.org/2000/svg">
<g clip-path="url(#clip0)">
<path d="M55.9016 56.223H12.0981V54.4854C12.0981 45.2146 19.6136 37.6992 28.8842 37.6992H39.1153C48.386 37.6992 55.9013 45.2146 55.9013 54.4854V56.223H55.9016Z" fill="url(#paint0_linear)"/>
<path d="M48.3838 40.4893V56.223H55.9012V54.4854C55.9012 48.6412 52.914 43.4954 48.3838 40.4893Z" fill="url(#paint1_linear)"/>
<path d="M25.6602 36.7795C25.6602 36.7795 23.2303 37.9944 24.0035 38.9885C24.5721 39.7197 27.4712 42.542 28.9647 43.9839C29.4599 44.4619 30.2456 44.4537 30.7322 43.9671L33.9989 40.7004L25.6602 36.7795Z" fill="url(#paint2_linear)"/>
<path d="M42.3379 36.7795C42.3379 36.7795 44.7677 37.9944 43.9946 38.9885C43.4259 39.7197 40.5269 42.542 39.0333 43.9839C38.5381 44.4619 37.7525 44.4537 37.2658 43.9671L33.999 40.7005L42.3379 36.7795Z" fill="url(#paint3_linear)"/>
<path d="M48.0098 49.6561H20.0073V22.8923C20.0073 15.1595 26.2759 8.89105 34.0085 8.89105C41.7413 8.89105 48.0097 15.1596 48.0097 22.8923V49.6561H48.0098Z" fill="url(#paint4_linear)"/>
<path d="M19.2285 25.6382C19.2285 23.7058 20.5698 22.0869 22.3722 21.6614C22.854 21.5476 23.3145 21.9202 23.3145 22.4152V28.861C23.3145 29.356 22.854 29.7286 22.3722 29.6148C20.5698 29.1894 19.2285 27.5705 19.2285 25.6382Z" fill="url(#paint5_linear)"/>
<path d="M48.7706 25.638C48.7706 23.7057 47.4293 22.0868 45.6269 21.6613C45.1451 21.5475 44.6846 21.9201 44.6846 22.4151V28.8609C44.6846 29.3559 45.1451 29.7285 45.6269 29.6147C47.4293 29.1893 48.7706 27.5704 48.7706 25.638Z" fill="url(#paint6_linear)"/>
<path d="M33.9997 40.6896C27.4722 40.6896 22.1807 35.398 22.1807 28.8706V22.8096C22.1807 16.2821 27.4722 10.9906 33.9996 10.9906C40.5271 10.9906 45.8186 16.2822 45.8186 22.8096V28.8706C45.8188 35.398 40.5273 40.6896 33.9997 40.6896Z" fill="url(#paint7_linear)"/>
<path d="M34.6527 31.8433H33.3468C32.2585 31.8433 31.4346 30.8599 31.6252 29.7884L32.3737 25.5803H35.6257L36.3742 29.7884C36.5649 30.8597 35.741 31.8433 34.6527 31.8433Z" fill="url(#paint8_linear)"/>
<path d="M46.9462 22.1684C46.461 22.2118 45.87 22.2529 45.2304 22.2917C42.6109 22.4502 40.3977 20.3706 40.3977 17.7462C37.4769 20.9729 33.2829 22.7431 28.933 22.6009C26.0521 22.5067 23.2177 22.3591 21.0698 22.1648C21.2727 16.4297 25.2093 11.6463 30.5211 10.1627C31.6303 9.85131 32.7991 9.68683 34.0098 9.68683C35.2205 9.68683 36.3892 9.85131 37.4985 10.1627C39.6715 10.7681 41.617 11.9298 43.1671 13.48C45.4067 15.7229 46.8273 18.7776 46.9462 22.1684Z" fill="url(#paint9_linear)"/>
<path d="M56.6763 62.8095H11.5572C10.9197 62.8095 10.4028 62.2927 10.4028 61.6551V58.8572H57.8307V61.6551C57.8307 62.2928 57.3138 62.8095 56.6763 62.8095Z" fill="url(#paint10_linear)"/>
<path d="M59.3814 59.5686H8.6182C8.29186 59.5686 8.02734 59.3041 8.02734 58.9778V56.8138C8.02734 56.4874 8.29186 56.2229 8.6182 56.2229H59.3814C59.7078 56.2229 59.9723 56.4874 59.9723 56.8138V58.9778C59.9723 59.3041 59.7078 59.5686 59.3814 59.5686Z" fill="url(#paint11_linear)"/>
<path d="M49.2102 34.5442H18.7886C18.1222 34.5442 17.582 35.0844 17.582 35.7507V54.5959C17.582 55.4946 18.3105 56.223 19.2091 56.223H48.7896C49.6883 56.223 50.4167 55.4946 50.4167 54.5959V35.7508C50.4167 35.0844 49.8766 34.5442 49.2102 34.5442Z" fill="url(#paint12_linear)"/>
<path d="M33.9995 48.2865C35.6026 48.2865 36.9022 46.9868 36.9022 45.3837C36.9022 43.7805 35.6026 42.4809 33.9995 42.4809C32.3963 42.4809 31.0967 43.7805 31.0967 45.3837C31.0967 46.9868 32.3963 48.2865 33.9995 48.2865Z" fill="url(#paint13_linear)"/>
<path d="M17.582 49.4062V54.596C17.582 55.4946 18.3105 56.223 19.2091 56.223H48.7896C49.6883 56.223 50.4167 55.4946 50.4167 54.596V49.4062H17.582Z" fill="url(#paint14_linear)"/>
<path d="M28.7606 28.1814C27.812 28.1814 27.043 27.4125 27.043 26.4637V25.5829C27.043 24.6343 27.8119 23.8652 28.7606 23.8652C29.7092 23.8652 30.4783 24.6342 30.4783 25.5829V26.4637C30.4783 27.4123 29.7092 28.1814 28.7606 28.1814Z" fill="url(#paint15_linear)"/>
<path d="M39.2387 28.1812C38.2901 28.1812 37.521 27.4123 37.521 26.4636V25.5827C37.521 24.6341 38.29 23.8651 39.2387 23.8651C40.1873 23.8651 40.9563 24.634 40.9563 25.5827V26.4636C40.9562 27.4122 40.1873 28.1812 39.2387 28.1812Z" fill="url(#paint16_linear)"/>
<path d="M51.5861 7.19031H55.1163C58.9181 7.19031 62.0001 10.2723 62.0001 14.0741C62.0001 17.876 58.9181 20.958 55.1163 20.958H51.5861C51.1857 20.958 50.7941 20.9218 50.4124 20.8563L48.3336 21.8889C47.8167 22.1456 47.2219 21.7245 47.2923 21.1517L47.4829 19.6014C45.7956 18.3468 44.7021 16.3383 44.7021 14.074C44.7021 10.2723 47.7841 7.19031 51.5861 7.19031Z" fill="url(#paint17_linear)"/>
<path d="M62.0002 14.0743C62.0002 14.5739 61.9475 15.0603 61.8464 15.5292L56.1685 9.85122C56.018 9.70079 56.128 9.45483 56.2784 9.3044L56.5122 9.07052C56.6626 8.92009 56.9086 8.81028 57.059 8.9606L61.998 13.8996C61.9991 13.9579 62.0002 14.0161 62.0002 14.0743Z" fill="url(#paint18_linear)"/>
<path d="M56.2965 10.1115C55.585 9.27696 54.5264 8.85761 53.3439 8.85981C52.4083 8.86091 51.6585 9.19911 50.9887 9.75911L50.3013 9.07063C50.1498 8.9202 49.9049 8.8104 49.7534 8.96072C49.6787 9.03649 49.6403 9.13531 49.6403 9.23413C49.6403 9.33405 49.6787 9.43288 49.7534 9.50864L50.4473 10.2015C49.9104 10.8702 49.5898 11.719 49.5953 12.6381C49.5953 12.6688 49.5975 12.8084 49.5986 12.8391L49.3239 12.4909C49.2602 12.3668 49.1296 12.391 48.9802 12.391H48.4949C48.2819 12.391 48.2183 12.4546 48.2183 12.6687C48.2183 12.7576 48.1381 12.8389 48.1886 12.9048L51.2071 15.9288C51.2762 16.0441 51.3213 16.1736 51.3377 16.3087L50.534 15.4852C50.3835 15.3347 50.1376 15.4446 49.9872 15.5951L49.7534 15.829C49.6029 15.9794 49.493 16.2253 49.6435 16.3758L54.1718 20.9579H55.1161C57.0179 20.9579 58.7385 20.1871 59.9837 18.9419C60.8775 18.0481 61.5265 16.9105 61.8218 15.6379L56.2965 10.1115Z" fill="url(#paint19_linear)"/>
<path d="M57.2161 12.6151C57.2161 10.4775 55.4813 8.74515 53.3427 8.74921C51.2096 8.75328 49.472 10.5049 49.4844 12.638C49.4916 13.8678 50.073 14.9615 50.974 15.6646C51.2091 15.8479 51.3467 16.1292 51.3467 16.4274C51.3467 17.0699 51.8676 17.5908 52.5102 17.5908H54.1903C54.8329 17.5908 55.3538 17.0699 55.3538 16.4274V16.4273C55.3538 16.1294 55.491 15.8481 55.7259 15.665C56.6329 14.9576 57.2161 13.8544 57.2161 12.6151Z" fill="url(#paint20_linear)"/>
<path d="M55.0564 14.5287C55.0564 13.5849 54.2904 12.82 53.3462 12.8218C52.4043 12.8235 51.6371 13.597 51.6426 14.5389C51.6458 15.0819 51.9025 15.5648 52.3003 15.8752C52.4041 15.9561 52.4649 16.0803 52.4649 16.212C52.4649 16.4957 52.695 16.7256 52.9786 16.7256H53.7204C54.0042 16.7256 54.2341 16.4956 54.2341 16.212C54.2341 16.0804 54.2947 15.9562 54.3984 15.8754C54.7988 15.563 55.0564 15.0759 55.0564 14.5287Z" fill="url(#paint21_linear)"/>
<path d="M49.7612 14.054C50.0176 14.6929 50.4396 15.2474 50.9742 15.6646C51.2093 15.8479 51.3469 16.1292 51.3469 16.4274C51.3469 17.0699 51.8678 17.5908 52.5104 17.5908H54.1905C54.8331 17.5908 55.354 17.0699 55.354 16.4274V16.4273C55.354 16.1294 55.4912 15.8482 55.7261 15.665C56.2609 15.2479 56.6829 14.6931 56.9394 14.054H49.7612Z" fill="url(#paint22_linear)"/>
<path d="M53.3507 19.2354C52.2442 19.2354 51.3472 18.3384 51.3472 17.2319V16.7157H55.3541V17.2319C55.3541 18.3384 54.4571 19.2354 53.3507 19.2354Z" fill="url(#paint23_linear)"/>
<path d="M51.2021 16.5274V16.972C51.2021 17.0737 51.3075 17.1603 51.4516 17.1779C52.0107 17.2459 52.6589 17.2847 53.35 17.2847C54.0411 17.2847 54.6892 17.2459 55.2484 17.1779C55.3925 17.1603 55.4979 17.0737 55.4979 16.972V16.5274C55.4979 16.3987 55.3323 16.3006 55.1497 16.3213C54.6135 16.3822 54.0011 16.4167 53.3501 16.4167C52.6992 16.4167 52.0867 16.3822 51.5506 16.3213C51.3678 16.3007 51.2021 16.3987 51.2021 16.5274Z" fill="url(#paint24_linear)"/>
<path d="M51.2026 17.6082V18.0528C51.2026 18.1545 51.3079 18.2411 51.4521 18.2587C52.0112 18.3267 52.6594 18.3656 53.3505 18.3656C54.0416 18.3656 54.6897 18.3267 55.2489 18.2587C55.393 18.2411 55.4984 18.1545 55.4984 18.0528V17.6082C55.4984 17.4795 55.3328 17.3814 55.1502 17.4021C54.614 17.463 54.0015 17.4976 53.3506 17.4976C52.6997 17.4976 52.0872 17.463 51.551 17.4021C51.3683 17.3814 51.2026 17.4795 51.2026 17.6082Z" fill="url(#paint25_linear)"/>
<path d="M57.722 13.0556H58.2072C58.421 13.0556 58.5943 12.8823 58.5943 12.6685C58.5943 12.4547 58.421 12.2814 58.2072 12.2814H57.722C57.5082 12.2814 57.335 12.4547 57.335 12.6685C57.335 12.8823 57.5082 13.0556 57.722 13.0556Z" fill="#FFC344"/>
<path d="M48.495 13.0556H48.9802C49.194 13.0556 49.3673 12.8823 49.3673 12.6685C49.3673 12.4547 49.194 12.2814 48.9802 12.2814H48.495C48.2812 12.2814 48.1079 12.4547 48.1079 12.6685C48.108 12.8823 48.2813 13.0556 48.495 13.0556Z" fill="#FFC344"/>
<path d="M56.168 16.0328L56.5111 16.376C56.6622 16.527 56.9073 16.527 57.0585 16.376C57.2096 16.2249 57.2096 15.9798 57.0585 15.8286L56.7154 15.4854C56.5643 15.3344 56.3192 15.3344 56.168 15.4854C56.0169 15.6366 56.0169 15.8817 56.168 16.0328Z" fill="#FFC344"/>
<path d="M49.6436 9.50841L49.9867 9.85154C50.1378 10.0026 50.3829 10.0026 50.5341 9.85154C50.6852 9.70045 50.6852 9.45537 50.5341 9.30417L50.191 8.96103C50.0399 8.80994 49.7948 8.80994 49.6436 8.96103C49.4925 9.11223 49.4925 9.35721 49.6436 9.50841Z" fill="#FFC344"/>
<path d="M50.5346 16.0328L50.1915 16.376C50.0404 16.527 49.7953 16.527 49.6441 16.376C49.493 16.2249 49.493 15.9798 49.6441 15.8286L49.9872 15.4854C50.1383 15.3344 50.3834 15.3344 50.5346 15.4854C50.6857 15.6366 50.6857 15.8817 50.5346 16.0328Z" fill="#FFC344"/>
<path d="M57.0585 9.50847L56.7154 9.85161C56.5643 10.0027 56.3192 10.0027 56.168 9.85161C56.0169 9.70052 56.0169 9.45543 56.168 9.30423L56.5111 8.9611C56.6622 8.81001 56.9073 8.81001 57.0585 8.9611C57.2096 9.1123 57.2096 9.35727 57.0585 9.50847Z" fill="#FFC344"/>
<path d="M14.0857 22.6135H11.3448C8.39296 22.6135 6 25.0065 6 27.9583C6 30.9102 8.39296 33.3032 11.3448 33.3032H14.0857C14.3966 33.3032 14.7006 33.2752 14.997 33.2242L16.611 34.026C17.0122 34.2253 17.4742 33.8983 17.4195 33.4536L17.2715 32.25C18.5816 31.276 19.4306 29.7164 19.4306 27.9585C19.4306 25.0065 17.0376 22.6135 14.0857 22.6135Z" fill="url(#paint26_linear)"/>
<path d="M16.0756 27.2979H9.35674C8.97012 27.2979 8.65674 26.9845 8.65674 26.5979V25.6434C8.65674 25.2567 8.97012 24.9434 9.35674 24.9434H16.0756C16.4623 24.9434 16.7756 25.2567 16.7756 25.6434V26.5979C16.7756 26.9845 16.4623 27.2979 16.0756 27.2979Z" fill="#3E5959"/>
<path d="M14.1928 31.2435H9.35576C8.96914 31.2435 8.65576 30.9301 8.65576 30.5435V29.589C8.65576 29.2024 8.96914 28.889 9.35576 28.889H14.1927C14.5794 28.889 14.8927 29.2024 14.8927 29.589V30.5435C14.8928 30.9301 14.5795 31.2435 14.1928 31.2435Z" fill="#3E5959"/>
</g>
<defs>
<linearGradient id="paint0_linear" x1="33.9999" y1="42.7864" x2="33.9999" y2="55.3891" gradientUnits="userSpaceOnUse">
<stop stop-color="#C1E9AF"/>
<stop offset="1" stop-color="#4FC123"/>
</linearGradient>
<linearGradient id="paint1_linear" x1="55.0388" y1="48.3562" x2="47.1573" y2="48.3562" gradientUnits="userSpaceOnUse">
<stop stop-color="#4FC123" stop-opacity="0"/>
<stop offset="0.1348" stop-color="#4BAB2F" stop-opacity="0.135"/>
<stop offset="0.385" stop-color="#468741" stop-opacity="0.385"/>
<stop offset="0.6201" stop-color="#426E4E" stop-opacity="0.62"/>
<stop offset="0.8318" stop-color="#3F5E56" stop-opacity="0.832"/>
<stop offset="1" stop-color="#3E5959"/>
</linearGradient>
<linearGradient id="paint2_linear" x1="30.2178" y1="37.4536" x2="27.1805" y2="42.3133" gradientUnits="userSpaceOnUse">
<stop stop-color="#FE99A0"/>
<stop offset="1" stop-color="#FD4755"/>
</linearGradient>
<linearGradient id="paint3_linear" x1="38.0991" y1="37.9676" x2="40.6946" y2="42.1094" gradientUnits="userSpaceOnUse">
<stop stop-color="#FE99A0"/>
<stop offset="1" stop-color="#FD4755"/>
</linearGradient>
<linearGradient id="paint4_linear" x1="19.1446" y1="18.5104" x2="34.0595" y2="33.4253" gradientUnits="userSpaceOnUse">
<stop stop-color="#537983"/>
<stop offset="1" stop-color="#3E5959"/>
</linearGradient>
<linearGradient id="paint5_linear" x1="20.4309" y1="23.8716" x2="23.7172" y2="27.1581" gradientUnits="userSpaceOnUse">
<stop stop-color="#FFDCBD"/>
<stop offset="1" stop-color="#FFA9B1"/>
</linearGradient>
<linearGradient id="paint6_linear" x1="43.411" y1="23.2473" x2="48.0098" y2="27.8461" gradientUnits="userSpaceOnUse">
<stop stop-color="#FFDCBD"/>
<stop offset="1" stop-color="#FFA9B1"/>
</linearGradient>
<linearGradient id="paint7_linear" x1="22.1808" y1="25.84" x2="45.8188" y2="25.84" gradientUnits="userSpaceOnUse">
<stop stop-color="#FFDCBD"/>
<stop offset="1" stop-color="#FFA9B1"/>
</linearGradient>
<linearGradient id="paint8_linear" x1="33.9998" y1="26.3107" x2="33.9998" y2="32.0205" gradientUnits="userSpaceOnUse">
<stop stop-color="#FFA9B1" stop-opacity="0"/>
<stop offset="0.9972" stop-color="#FFA78F"/>
</linearGradient>
<linearGradient id="paint9_linear" x1="25.2803" y1="10.9842" x2="40.1951" y2="25.899" gradientUnits="userSpaceOnUse">
<stop stop-color="#537983"/>
<stop offset="1" stop-color="#3E5959"/>
</linearGradient>
<linearGradient id="paint10_linear" x1="34.1167" y1="65.5879" x2="34.1167" y2="58.8532" gradientUnits="userSpaceOnUse">
<stop stop-color="#883F2E"/>
<stop offset="1" stop-color="#6D3326"/>
</linearGradient>
<linearGradient id="paint11_linear" x1="33.9998" y1="56.8738" x2="33.9998" y2="59.6142" gradientUnits="userSpaceOnUse">
<stop stop-color="#CA6E59"/>
<stop offset="1" stop-color="#883F2E"/>
</linearGradient>
<linearGradient id="paint12_linear" x1="30.4247" y1="37.2675" x2="38.7555" y2="55.7978" gradientUnits="userSpaceOnUse">
<stop stop-color="#EEF5F6"/>
<stop offset="1" stop-color="#CBE5E8"/>
</linearGradient>
<linearGradient id="paint13_linear" x1="37.3331" y1="48.7173" x2="32.4949" y2="43.8791" gradientUnits="userSpaceOnUse">
<stop stop-color="#EEF5F6" stop-opacity="0"/>
<stop offset="1" stop-color="white"/>
</linearGradient>
<linearGradient id="paint14_linear" x1="33.9994" y1="52.3466" x2="33.9994" y2="56.3427" gradientUnits="userSpaceOnUse">
<stop stop-color="#CBE5E8" stop-opacity="0"/>
<stop offset="1" stop-color="#7CA1B1"/>
</linearGradient>
<linearGradient id="paint15_linear" x1="27.0431" y1="26.0233" x2="30.4783" y2="26.0233" gradientUnits="userSpaceOnUse">
<stop stop-color="#537983"/>
<stop offset="1" stop-color="#3E5959"/>
</linearGradient>
<linearGradient id="paint16_linear" x1="37.521" y1="26.0231" x2="40.9562" y2="26.0231" gradientUnits="userSpaceOnUse">
<stop stop-color="#537983"/>
<stop offset="1" stop-color="#3E5959"/>
</linearGradient>
<linearGradient id="paint17_linear" x1="52.5498" y1="13.0546" x2="57.4544" y2="21.9854" gradientUnits="userSpaceOnUse">
<stop stop-color="#60B7FF"/>
<stop offset="0.1835" stop-color="#56AFF6"/>
<stop offset="0.5011" stop-color="#3A97E0"/>
<stop offset="0.9121" stop-color="#0C71BC"/>
<stop offset="1" stop-color="#0268B4"/>
</linearGradient>
<linearGradient id="paint18_linear" x1="61.062" y1="13.8542" x2="55.0369" y2="7.82908" gradientUnits="userSpaceOnUse">
<stop stop-color="#0268B4" stop-opacity="0"/>
<stop offset="1" stop-color="#0268B4"/>
</linearGradient>
<linearGradient id="paint19_linear" x1="59.268" y1="18.6368" x2="49.1907" y2="10.7785" gradientUnits="userSpaceOnUse">
<stop stop-color="#0268B4" stop-opacity="0"/>
<stop offset="1" stop-color="#0268B4"/>
</linearGradient>
<linearGradient id="paint20_linear" x1="51.4907" y1="11.1708" x2="55.4929" y2="15.1731" gradientUnits="userSpaceOnUse">
<stop stop-color="#FFE177"/>
<stop offset="1" stop-color="#FE9738"/>
</linearGradient>
<linearGradient id="paint21_linear" x1="52.9989" y1="13.3785" x2="54.3148" y2="17.6964" gradientUnits="userSpaceOnUse">
<stop stop-color="#FE9738" stop-opacity="0"/>
<stop offset="1" stop-color="#F46700"/>
</linearGradient>
<linearGradient id="paint22_linear" x1="53.3503" y1="15.1026" x2="53.3503" y2="16.5214" gradientUnits="userSpaceOnUse">
<stop stop-color="#FE9738" stop-opacity="0"/>
<stop offset="1" stop-color="#F46700"/>
</linearGradient>
<linearGradient id="paint23_linear" x1="52.6515" y1="16.3498" x2="54.4343" y2="18.7784" gradientUnits="userSpaceOnUse">
<stop stop-color="#537983"/>
<stop offset="1" stop-color="#3E5959"/>
</linearGradient>
<linearGradient id="paint24_linear" x1="53.35" y1="16.497" x2="53.35" y2="17.2034" gradientUnits="userSpaceOnUse">
<stop stop-color="#EEF5F6"/>
<stop offset="1" stop-color="#CBE5E8"/>
</linearGradient>
<linearGradient id="paint25_linear" x1="53.3505" y1="17.5778" x2="53.3505" y2="18.2841" gradientUnits="userSpaceOnUse">
<stop stop-color="#EEF5F6"/>
<stop offset="1" stop-color="#CBE5E8"/>
</linearGradient>
<linearGradient id="paint26_linear" x1="12.7153" y1="24.8802" x2="12.7153" y2="35.8129" gradientUnits="userSpaceOnUse">
<stop stop-color="#FE99A0"/>
<stop offset="1" stop-color="#FD4755"/>
</linearGradient>
<clipPath id="clip0">
<rect width="56" height="56" fill="white" transform="translate(6 7)"/>
</clipPath>
</defs>
</svg>
